<?xml version="1.0" encoding="UTF-8" standalone="no"?>
<svg
   viewBox="0 0 167 70"
   fill="none"
   preserveAspectRatio="xMinYMin meet"
   class="svg-content"
   version="1.1"
   id="svg26"
   sodipodi:docname="sheffield-su-logo.svg"
   inkscape:export-filename="sheffield-su-logo.png"
   inkscape:export-xdpi="960"
   inkscape:export-ydpi="960"
   inkscape:version="1.4 (e7c3feb100, 2024-10-09)"
   xmlns:inkscape="http://www.inkscape.org/namespaces/inkscape"
   xmlns:sodipodi="http://sodipodi.sourceforge.net/DTD/sodipodi-0.dtd"
   xmlns="http://www.w3.org/2000/svg"
   xmlns:svg="http://www.w3.org/2000/svg">
  <defs
     id="defs26" />
  <sodipodi:namedview
     id="namedview26"
     pagecolor="#ffffff"
     bordercolor="#000000"
     borderopacity="0.25"
     inkscape:showpageshadow="2"
     inkscape:pageopacity="0.0"
     inkscape:pagecheckerboard="0"
     inkscape:deskcolor="#d1d1d1"
     inkscape:zoom="7.994012"
     inkscape:cx="49.599625"
     inkscape:cy="34.96367"
     inkscape:window-width="1440"
     inkscape:window-height="828"
     inkscape:window-x="0"
     inkscape:window-y="0"
     inkscape:window-maximized="1"
     inkscape:current-layer="svg26" />
  <g
     id="ssu-logo-text"
     style="fill:#0abef0;fill-opacity:1">
    <path
       d="M68.8281 17.8408C70.1267 18.8648 72.1362 19.3153 73.9106 19.3153C77.0071 19.3153 80.7969 17.9988 80.7969 13.8326C80.7969 9.90047 77.671 8.95254 75.6557 8.37326L73.2467 7.65939C72.3947 7.41948 71.2607 7.0801 70.7789 6.68221C70.6437 6.57689 70.1208 6.10292 70.1208 5.12574C70.1208 4.06665 70.6202 3.32937 71.2313 2.90807C71.8659 2.46337 72.7707 2.24687 73.7755 2.24687C76.7133 2.24687 77.5124 3.856 77.8532 4.54061C77.9589 4.75126 78.2234 5.33054 78.3056 5.43587C78.57 5.83376 78.8638 5.88057 79.1517 5.88057C79.8627 5.88057 80.4737 5.45927 80.4737 4.66934C80.4737 3.95547 79.7569 2.45167 78.6699 1.55641C77.1363 0.269103 75.0681 0.134521 73.8754 0.134521C69.5861 0.134521 67.5179 2.34634 67.5179 5.40661C67.5179 8.17431 69.3158 9.07542 69.8505 9.30948C70.4381 9.57279 71.2548 9.8361 71.9716 10.0526L73.9576 10.6026C75.3854 11.0298 76.5547 11.3692 77.295 12.0011C77.6945 12.3171 78.2821 13.0075 78.2821 14.0608C78.2821 14.9853 77.8297 15.8279 77.1422 16.3545C76.161 17.0918 74.7567 17.1211 74.1456 17.1211C73.3818 17.1211 72.0069 17.0684 70.867 16.2492C69.7271 15.4359 69.5156 14.4294 69.2747 13.5576C69.1689 13.1889 69.0103 12.7969 68.2171 12.7969C67.7647 12.7969 66.707 13.0075 66.707 14.0315C66.707 14.5406 67.1595 16.5184 68.8281 17.8408Z"
       id="path1"
       style="fill:#0abef0;fill-opacity:1" />
    <path
       d="M83.7104 19.2102C84.3744 19.2102 84.6917 18.8416 84.7974 18.6075C84.8738 18.4495 84.9267 18.2389 84.9267 18.0224V11.7965C84.9267 10.556 84.9796 9.42085 85.9314 8.42026C86.5425 7.78831 87.5237 7.31435 88.6636 7.31435C89.0867 7.31435 90.3088 7.34361 90.914 8.47292C91.2313 9.11072 91.2842 9.78948 91.2842 11.4279V18.0224C91.2842 18.3676 91.3899 19.2102 92.5063 19.2102C93.1644 19.2102 93.4817 18.8416 93.5874 18.6075C93.6697 18.4495 93.7167 18.2389 93.7167 18.0224V10.6906C93.7167 9.4267 93.7167 7.89364 92.8706 6.71166C92.6591 6.41909 91.6778 5.12594 89.1631 5.12594C87.606 5.12594 85.9079 5.68182 84.9502 6.95157V1.45712C84.9502 1.14115 84.8209 0.275146 83.7046 0.275146C82.5882 0.275146 82.4824 1.14115 82.4824 1.48638V18.0224C82.4883 18.3676 82.5941 19.2102 83.7104 19.2102Z"
       id="path2"
       style="fill:#0abef0;fill-opacity:1" />
    <path
       d="M101.977 19.3153C102.718 19.3153 105.103 19.3153 106.93 17.2556C107.224 16.9397 107.671 16.3604 107.782 15.8572C107.806 15.7811 107.806 15.6992 107.806 15.5938C107.806 14.8332 107.013 14.4879 106.431 14.4879C105.849 14.4879 105.714 14.7512 105.291 15.4651C104.815 16.2024 104.075 17.2849 101.983 17.2849C100.925 17.2849 99.8384 17.0976 98.9395 15.9917C98.2226 15.1199 97.9582 14.0666 97.9112 12.8788H106.807C107.148 12.8788 108 12.8027 108 11.691C108 10.2106 107.547 8.49612 106.672 7.28489C105.855 6.17898 104.815 5.59969 103.628 5.31298C103.07 5.17839 102.488 5.12573 101.907 5.12573C97.2179 5.12573 95.4199 9.00519 95.4199 12.3288C95.4199 14.2305 95.9781 16.1263 97.1709 17.4721C98.5047 18.9759 100.256 19.3153 101.977 19.3153ZM99.3566 8.10993C100.285 7.28489 101.372 7.23808 101.924 7.23808C104.439 7.23808 105.397 9.16318 105.497 10.901H97.923C98.0581 10.2925 98.299 9.0286 99.3566 8.10993Z"
       id="path3"
       style="fill:#0abef0;fill-opacity:1" />
    <path
       d="M109.028 7.44866H110.38V18.0221C110.403 18.42 110.456 18.8179 110.961 19.0753C111.173 19.1573 111.384 19.2099 111.572 19.2099C111.76 19.2099 111.972 19.1865 112.23 19.0753C112.736 18.7828 112.812 18.4141 112.812 18.0221V7.44866H117.571V18.0221C117.595 18.42 117.654 18.8179 118.153 19.0753C118.365 19.1573 118.576 19.2099 118.764 19.2099C118.952 19.2099 119.164 19.1865 119.428 19.0753C119.933 18.7828 120.01 18.4141 120.01 18.0221V7.44866H121.943C122.231 7.44866 122.948 7.34333 122.948 6.42466C122.948 5.47674 122.284 5.39482 121.943 5.39482H119.98C119.98 3.3644 119.98 3.01917 120.433 2.65053C120.75 2.38137 121.067 2.35796 121.784 2.3053C122.207 2.27604 122.971 2.19997 122.971 1.27546C122.971 0.251465 122.019 0.251465 121.596 0.251465C119.98 0.251465 118.658 0.696169 118.018 1.884C117.571 2.67393 117.571 3.3878 117.571 5.39482H112.783C112.783 3.3644 112.783 3.01917 113.235 2.65053C113.552 2.38137 113.87 2.35796 114.587 2.3053C115.01 2.27604 115.779 2.19997 115.779 1.27546C115.779 0.251465 114.827 0.251465 114.404 0.251465C112.789 0.251465 111.461 0.696169 110.826 1.884C110.38 2.67393 110.38 3.3878 110.38 5.39482H109.028C108.729 5.39482 108.018 5.47674 108.018 6.42466C108.018 7.34333 108.705 7.44866 109.028 7.44866Z"
       id="path4"
       style="fill:#0abef0;fill-opacity:1" />
    <path
       d="M125.846 3.22423C126.751 3.22423 127.332 2.66835 127.332 1.77309C127.332 0.795911 126.622 0.269287 125.846 0.269287C125.029 0.269287 124.359 0.819316 124.359 1.77309C124.359 2.59228 124.894 3.22423 125.846 3.22423Z"
       id="path5"
       style="fill:#0abef0;fill-opacity:1" />
    <path
       d="M125.845 5.2312C124.764 5.2312 124.658 6.0738 124.658 6.39563V18.034C124.658 18.7713 125.158 19.2218 125.874 19.2218C126.515 19.2218 126.832 18.8532 126.938 18.6133C127.014 18.4553 127.067 18.2447 127.067 18.034V6.38977C127.061 6.0738 126.956 5.2312 125.845 5.2312Z"
       id="path6"
       style="fill:#0abef0;fill-opacity:1" />
    <path
       d="M140.294 17.2556C140.587 16.9397 141.034 16.3604 141.146 15.8572C141.169 15.7811 141.169 15.6992 141.169 15.5938C141.169 14.8332 140.37 14.4879 139.794 14.4879C139.213 14.4879 139.077 14.7512 138.654 15.4651C138.178 16.2024 137.432 17.2849 135.34 17.2849C134.283 17.2849 133.196 17.0976 132.303 15.9917C131.586 15.1199 131.321 14.0666 131.269 12.8788H140.17C140.517 12.8788 141.363 12.8027 141.363 11.691C141.363 10.2106 140.911 8.49612 140.041 7.28489C139.224 6.17898 138.184 5.59969 136.992 5.31298C136.433 5.17839 135.852 5.12573 135.27 5.12573C130.581 5.12573 128.783 9.00519 128.783 12.3288C128.783 14.2305 129.336 16.1263 130.528 17.4721C131.88 18.9759 133.631 19.3153 135.346 19.3153C136.081 19.3153 138.466 19.3153 140.294 17.2556ZM132.72 8.10993C133.648 7.28489 134.729 7.23808 135.293 7.23808C137.808 7.23808 138.76 9.16318 138.866 10.901H131.292C131.421 10.2925 131.662 9.0286 132.72 8.10993Z"
       id="path7"
       style="fill:#0abef0;fill-opacity:1" />
    <path
       d="M145.481 18.0224V1.42786C145.481 1.11189 145.376 0.269287 144.265 0.269287C143.178 0.269287 143.049 1.11189 143.049 1.42786V18.0224C143.049 18.8181 143.578 19.2102 144.265 19.2102C145.376 19.2102 145.481 18.3383 145.481 18.0224Z"
       id="path8"
       style="fill:#0abef0;fill-opacity:1" />
    <path
       d="M153.055 19.3155C154.172 19.3155 155.229 19.0815 156.181 18.4437C156.763 18.0516 157.051 17.7064 157.292 17.4138C157.268 18.1511 157.268 18.3617 157.368 18.6017C157.503 18.865 157.821 19.2043 158.432 19.2043C159.525 19.2043 159.624 18.3852 159.624 18.0458V1.45712C159.624 1.05923 159.542 0.667189 159.043 0.403877C158.778 0.275146 158.537 0.275146 158.432 0.275146C157.873 0.275146 157.527 0.591121 157.398 0.854433C157.315 1.04168 157.268 1.25233 157.268 1.46298V7.16221C156.922 6.71166 155.729 5.12594 152.903 5.12594C148.66 5.12594 147.18 8.79475 147.18 12.1476C147.174 15.8632 148.866 19.3155 153.055 19.3155ZM149.847 10.4273C150.223 8.5841 151.257 7.17977 153.343 7.17977C154.325 7.17977 155.623 7.41967 156.499 8.84741C157.162 9.90066 157.292 11.1704 157.292 12.2529C157.292 12.8849 157.292 15.8398 155.171 16.9223C154.642 17.209 154.031 17.3144 153.367 17.3144C150.27 17.3144 149.689 14.5408 149.689 12.2529C149.689 11.6385 149.741 11.0358 149.847 10.4273Z"
       id="path9"
       style="fill:#0abef0;fill-opacity:1" />
    <path
       d="M68.8281 43.1597C70.1267 44.1895 72.1362 44.64 73.9106 44.64C77.0071 44.64 80.7969 43.3235 80.7969 39.1515C80.7969 35.2193 77.671 34.2714 75.6557 33.6921L73.2467 32.9841C72.3947 32.7442 71.2607 32.399 70.7789 32.0011C70.6496 31.8957 70.1208 31.4218 70.1208 30.4446C70.1208 29.3855 70.6202 28.6482 71.2313 28.2269C71.8659 27.7764 72.7707 27.5716 73.7755 27.5716C76.7133 27.5716 77.5124 29.1807 77.8532 29.8653C77.9589 30.076 78.2234 30.6553 78.3056 30.7606C78.57 31.1585 78.8579 31.2111 79.1517 31.2111C79.8685 31.2111 80.4796 30.7898 80.4796 29.9999C80.4796 29.286 79.7628 27.7822 78.6758 26.887C77.1422 25.5938 75.074 25.4651 73.8812 25.4651C69.592 25.4651 67.5237 27.6828 67.5237 30.743C67.5237 33.5107 69.3276 34.406 69.8564 34.6459C70.444 34.9092 71.2607 35.1725 71.9775 35.3832L73.9635 35.939C75.3913 36.3603 76.5605 36.6997 77.3009 37.3317C77.7004 37.6535 78.2821 38.3381 78.2821 39.3914C78.2821 40.3159 77.8356 41.1585 77.1422 41.6851C76.161 42.4282 74.7567 42.4516 74.1515 42.4516C73.3818 42.4516 72.0069 42.399 70.867 41.5798C69.7271 40.7606 69.5097 39.7541 69.2747 38.8881C69.1689 38.5137 69.0103 38.1216 68.2171 38.1216C67.7705 38.1216 66.707 38.3323 66.707 39.3621C66.707 39.8653 67.1595 41.8431 68.8281 43.1597Z"
       id="path10"
       style="fill:#0abef0;fill-opacity:1" />
    <path
       d="M83.87 40.4975C83.87 42.5513 83.8699 44.5349 87.554 44.5349C88.2708 44.5349 89.1169 44.4296 89.1169 43.5051C89.1169 42.5805 88.453 42.5279 87.8184 42.4986C87.1016 42.446 86.5963 42.3172 86.4141 41.5507C86.3319 41.2347 86.3084 41.0533 86.3084 39.4735V32.7678H87.9535C88.2473 32.7678 88.9583 32.6625 88.9583 31.7379C88.9583 30.79 88.2708 30.7081 87.9535 30.7081H86.3084V27.6244C86.3084 27.2558 86.232 26.4893 85.0921 26.4893C84.0051 26.4893 83.8993 27.2792 83.8993 27.6244V30.7081H82.4715C82.1778 30.7081 81.4668 30.7842 81.4668 31.7379C81.4668 32.6625 82.1836 32.7678 82.4715 32.7678H83.8758V40.4975H83.87Z"
       id="path11"
       style="fill:#0abef0;fill-opacity:1" />
    <path
       d="M101.309 44.4003C101.814 44.1369 101.867 43.7449 101.891 43.3763V31.7613C101.891 31.4161 101.785 30.55 100.645 30.55C99.5344 30.55 99.4286 31.4219 99.4286 31.7613V37.5366C99.4286 38.5138 99.4521 39.0931 99.2935 39.7543C98.8998 41.5214 97.4368 42.5512 95.7211 42.5512C95.4038 42.5512 94.1581 42.5512 93.5471 41.4453C93.2004 40.8134 93.124 40.0702 93.124 38.3031V31.7379C93.124 31.3926 92.9889 30.55 91.8784 30.55C90.7679 30.55 90.6621 31.4219 90.6621 31.7613V39.0931C90.6621 40.3335 90.6621 42.0246 91.7961 43.2885C92.9889 44.5816 94.6869 44.6343 95.3215 44.6343C97.2546 44.6343 98.3945 44.1311 99.5344 42.6273C99.5344 43.6864 99.5344 44.1077 100.093 44.3944C100.463 44.5582 100.968 44.5582 101.309 44.4003Z"
       id="path12"
       style="fill:#0abef0;fill-opacity:1" />
    <path
       d="M116.033 43.3763V26.7818C116.033 26.3839 115.956 25.986 115.451 25.7286C115.186 25.594 114.946 25.594 114.84 25.594C114.287 25.594 113.941 25.91 113.812 26.1791C113.729 26.3605 113.676 26.577 113.676 26.7818V32.4811C113.336 32.0305 112.143 30.4506 109.311 30.4506C105.069 30.4506 103.588 34.1136 103.588 37.4664C103.588 41.1879 105.28 44.6461 109.469 44.6461C110.58 44.6461 111.638 44.4062 112.589 43.7742C113.171 43.3822 113.465 43.0369 113.706 42.7444C113.676 43.4816 113.676 43.6981 113.788 43.9322C113.917 44.2014 114.235 44.5407 114.846 44.5407C115.927 44.5349 116.033 43.7157 116.033 43.3763ZM111.585 42.2412C111.05 42.5279 110.445 42.6332 109.781 42.6332C106.684 42.6332 106.103 39.8655 106.103 37.5718C106.103 36.9632 106.156 36.3547 106.255 35.7461C106.626 33.9029 107.66 32.5045 109.757 32.5045C110.739 32.5045 112.031 32.7385 112.913 34.1663C113.577 35.2195 113.706 36.4893 113.706 37.5718C113.7 38.2037 113.7 41.1528 111.585 42.2412Z"
       id="path13"
       style="fill:#0abef0;fill-opacity:1" />
    <path
       d="M130.304 37.0098C130.304 35.5353 129.852 33.8208 128.982 32.6096C128.166 31.5037 127.126 30.9244 125.933 30.6318C125.381 30.4972 124.799 30.4504 124.217 30.4504C119.528 30.4504 117.725 34.324 117.725 37.6535C117.725 39.5493 118.283 41.451 119.47 42.7968C120.821 44.3006 122.572 44.6459 124.294 44.6459C125.034 44.6459 127.419 44.6459 129.247 42.5862C129.541 42.2702 129.987 41.6851 130.099 41.1877C130.122 41.1116 130.122 41.0297 130.122 40.9244C130.122 40.1579 129.329 39.8185 128.747 39.8185C128.166 39.8185 128.031 40.0818 127.607 40.7898C127.132 41.5329 126.385 42.6096 124.299 42.6096C123.236 42.6096 122.155 42.4224 121.25 41.3164C120.533 40.4446 120.269 39.3913 120.216 38.2035H129.118C129.452 38.2035 130.304 38.1216 130.304 37.0098ZM120.239 36.2199C120.369 35.6114 120.61 34.3475 121.667 33.4229C122.596 32.6037 123.683 32.5511 124.235 32.5511C126.75 32.5511 127.707 34.4762 127.807 36.214H120.239V36.2199Z"
       id="path14"
       style="fill:#0abef0;fill-opacity:1" />
    <path
       d="M138.641 30.4446C136.838 30.4446 135.463 30.9712 134.376 32.4223C134.376 31.3691 134.376 30.9712 133.794 30.6786C133.477 30.5206 132.919 30.5206 132.578 30.6786C132.078 30.9419 131.996 31.3398 131.996 31.7085V43.341C131.996 43.7389 132.078 44.1368 132.578 44.3943C132.789 44.4762 133.001 44.523 133.212 44.523C134.329 44.523 134.435 43.6804 134.435 43.341V37.6184C134.435 36.9104 134.405 36.2199 134.57 35.5353C134.834 34.324 135.71 32.5277 138.119 32.5277C140.58 32.5277 140.733 34.4528 140.733 35.1608C140.733 35.4007 140.792 35.7167 140.792 37.1151V43.341C140.792 43.7155 140.868 44.1368 141.374 44.3943C141.585 44.4762 141.797 44.523 142.008 44.523C143.119 44.523 143.225 43.6804 143.225 43.341V35.8805C143.225 34.482 143.195 33.0836 142.296 31.9484C141.421 30.8659 140.069 30.4446 138.641 30.4446Z"
       id="path15"
       style="fill:#0abef0;fill-opacity:1" />
    <path
       d="M150.465 42.4986C149.748 42.446 149.249 42.3172 149.061 41.5507C148.978 41.2347 148.955 41.0533 148.955 39.4735V32.7678H150.6C150.894 32.7678 151.611 32.6625 151.611 31.7379C151.611 30.79 150.917 30.7081 150.6 30.7081H148.955V27.6244C148.955 27.2558 148.878 26.4893 147.733 26.4893C146.652 26.4893 146.546 27.2792 146.546 27.6244V30.7081H145.118C144.824 30.7081 144.107 30.7842 144.107 31.7379C144.107 32.6625 144.824 32.7678 145.118 32.7678H146.522V40.4975C146.522 42.5513 146.522 44.5349 150.206 44.5349C150.923 44.5349 151.769 44.4296 151.769 43.5051C151.758 42.5805 151.099 42.5279 150.465 42.4986Z"
       id="path16"
       style="fill:#0abef0;fill-opacity:1" />
    <path
       d="M159.171 36.4308L157.638 35.9568C156.415 35.5882 155.364 35.2722 155.364 34.0551C155.364 33.4758 155.681 32.9492 156.127 32.6566C156.633 32.3173 157.35 32.288 157.667 32.288C159.753 32.288 160.475 33.5285 160.711 33.9732C161.104 34.7397 161.263 35.0264 161.85 35.0264C162.244 35.0264 162.967 34.7865 162.967 33.9966C162.967 33.47 162.25 30.4331 157.773 30.4331C153.213 30.4331 152.949 33.6806 152.949 34.3652C152.949 36.8989 155.199 37.6361 156.656 38.1101L158.19 38.5607C159.541 38.9527 160.758 39.2979 160.758 40.673C160.758 41.9135 159.594 42.7327 158.031 42.7327C156.915 42.7327 155.804 42.3641 155.199 41.4395C155.011 41.147 154.988 41.0417 154.612 40.0411C154.482 39.7778 154.324 39.4618 153.713 39.4618C153.319 39.4618 152.414 39.6724 152.414 40.5677C152.414 40.9363 152.649 42.3875 153.871 43.4173C155.223 44.5525 157.103 44.6344 157.867 44.6344C159.083 44.6344 160.487 44.3945 161.498 43.7099C162.291 43.1774 163.167 42.1476 163.167 40.4624C163.172 37.5952 160.605 36.8521 159.171 36.4308Z"
       id="path17"
       style="fill:#0abef0;fill-opacity:1" />
    <path
       d="M165.841 25.91C165.494 25.6759 165.124 25.594 164.83 25.594C163.902 25.594 163.326 26.3313 163.326 27.2031C163.326 27.6478 163.455 28.0984 163.831 28.3617C164.149 28.5957 164.466 28.5957 164.73 28.5723C164.754 29.7894 164.466 30.1873 164.119 30.6028C163.643 31.1001 163.538 31.2347 163.538 31.5039C163.538 31.8491 163.802 32.2412 164.196 32.2412C164.96 32.2412 166.552 29.9708 166.552 27.6478C166.552 26.6472 166.182 26.1733 165.841 25.91Z"
       id="path18"
       style="fill:#0abef0;fill-opacity:1" />
    <path
       d="M80.35 50.9187C80.1385 50.9187 79.927 50.9714 79.7448 51.0767C79.216 51.34 79.1572 51.7379 79.1337 52.1299V61.498C79.1337 64.2949 79.1044 66.0621 77.2006 67.0626C76.3017 67.56 75.3439 67.6419 74.6565 67.6419C71.9831 67.6419 71.0312 66.2669 70.8138 65.9275C70.0735 64.5583 70.0735 63.1071 70.0735 60.041V52.1065C70.0735 51.7613 69.9383 50.9187 68.7984 50.9187C67.6351 50.9187 67.5293 51.7379 67.5293 52.1065V62.3406C67.5293 64.3476 67.6644 66.302 68.9101 67.7531C69.8091 68.859 71.6893 69.9708 74.7387 69.9708C77.2535 69.9708 80.115 69.0989 81.0375 66.5653C81.5898 65.0322 81.5898 63.7157 81.5898 62.1592V52.1299C81.5956 51.3634 81.0375 50.9187 80.35 50.9187Z"
       id="path19"
       style="fill:#0abef0;fill-opacity:1" />
    <path
       d="M89.9325 55.7695C88.1345 55.7695 86.7538 56.2962 85.6668 57.7473C85.6668 56.6941 85.6668 56.2962 85.0851 56.0036C84.7678 55.8456 84.2096 55.8456 83.8688 56.0036C83.3635 56.2669 83.2871 56.6648 83.2871 57.0334V68.666C83.2871 69.0639 83.3635 69.4617 83.8688 69.7192C84.0803 69.8011 84.2919 69.8479 84.5034 69.8479C85.6198 69.8479 85.7196 69.0053 85.7196 68.6601V62.9375C85.7196 62.2236 85.6903 61.539 85.8489 60.8544C86.1133 59.6373 86.9888 57.8468 89.3978 57.8468C91.8656 57.8468 92.0242 59.7719 92.0242 60.4799C92.0242 60.7198 92.0771 61.0358 92.0771 62.4342V68.6543C92.0771 69.0229 92.1535 69.45 92.6588 69.7075C92.8703 69.7894 93.0819 69.8362 93.2934 69.8362C94.4039 69.8362 94.5096 68.9936 94.5096 68.6484V61.2055C94.5096 59.807 94.4861 58.4085 93.5813 57.2733C92.7176 56.1967 91.3662 55.7695 89.9325 55.7695Z"
       id="path20"
       style="fill:#0abef0;fill-opacity:1" />
    <path
       d="M97.4135 55.8748C96.3265 55.8748 96.2207 56.7232 96.2207 57.0392V68.6717C96.2207 69.409 96.726 69.8537 97.437 69.8537C98.0716 69.8537 98.3947 69.485 98.4946 69.251C98.5769 69.093 98.6297 68.8824 98.6297 68.6717V57.0392C98.6297 56.7232 98.524 55.8748 97.4135 55.8748Z"
       id="path21"
       style="fill:#0abef0;fill-opacity:1" />
    <path
       d="M97.4123 50.9187C96.5897 50.9187 95.9258 51.4746 95.9258 52.4225C95.9258 53.2358 96.4546 53.8678 97.4123 53.8678C98.3113 53.8678 98.893 53.3119 98.893 52.4225C98.893 51.4453 98.1762 50.9187 97.4123 50.9187Z"
       id="path22"
       style="fill:#0abef0;fill-opacity:1" />
    <path
       d="M106.942 55.7461C105.808 55.7461 103.605 55.9041 101.96 57.7239C100.45 59.4383 100.314 61.656 100.314 62.9199C100.314 63.8971 100.367 66.3254 102.013 68.1159C103.523 69.7777 105.432 69.9591 106.807 69.9591C108.082 69.9591 110.068 69.8011 111.684 68.034C113.3 66.2376 113.435 63.9205 113.435 62.7326C113.429 58.2212 110.832 55.7461 106.942 55.7461ZM109.933 66.5887C109.216 67.5366 108.053 68.0106 106.86 68.0106C105.35 68.0106 104.316 67.326 103.787 66.6648C103.047 65.7168 102.806 64.2657 102.806 62.9199C102.806 61.6794 103.017 60.2868 103.705 59.2803C104.709 57.8818 106.114 57.7765 106.831 57.7765C110.062 57.7765 110.908 60.3336 110.908 62.8965C110.914 63.7098 110.861 65.4009 109.933 66.5887Z"
       id="path23"
       style="fill:#0abef0;fill-opacity:1" />
    <path
       d="M121.774 55.7695C119.97 55.7695 118.596 56.2962 117.509 57.7473C117.509 56.6941 117.509 56.2962 116.927 56.0036C116.61 55.8456 116.057 55.8456 115.705 56.0036C115.205 56.2669 115.123 56.6648 115.123 57.0334V68.666C115.123 69.0639 115.199 69.4617 115.705 69.7192C115.916 69.8011 116.134 69.8479 116.339 69.8479C117.456 69.8479 117.556 69.0053 117.556 68.6601V62.9375C117.556 62.2236 117.532 61.539 117.691 60.8544C117.955 59.6373 118.831 57.8468 121.234 57.8468C123.696 57.8468 123.86 59.7719 123.86 60.4799C123.86 60.7198 123.913 61.0358 123.913 62.4342V68.6543C123.913 69.0229 123.989 69.45 124.495 69.7075C124.712 69.7894 124.918 69.8362 125.129 69.8362C126.246 69.8362 126.346 68.9936 126.346 68.6484V61.2055C126.346 59.807 126.322 58.4085 125.417 57.2733C124.554 56.1967 123.202 55.7695 121.774 55.7695Z"
       id="path24"
       style="fill:#0abef0;fill-opacity:1" />
  </g>
  <g
     id="ssu-logo-badge"
     style="fill:#0abef0;fill-opacity:1">
    <path
       d="M26.5522 45.9099L14.7009 38.151C13.4377 37.3142 13.3495 36.419 13.3495 34.3534V25.9216C13.3495 23.8561 13.42 22.9608 14.7009 22.1241L26.8283 14.0901C27.8213 13.4172 27.9623 12.4283 27.9623 11.299V3.00761C27.9623 1.29315 26.6814 0 24.9422 0H3.02009C1.09875 0 0 1.2639 0 3.00761V53.0018C0 54.6284 0.56994 55.828 1.7392 56.7115L17.5976 68.4611C18.6729 69.2744 19.5484 70 21.2288 70H25.7531C27.3806 70 27.9564 69.1633 27.9564 67.7999V49.0579C27.9623 47.636 28.0269 46.8929 26.5522 45.9099Z"
       id="path25"
       style="fill:#0abef0;fill-opacity:1" />
    <path
       d="M55.138 0H33.21C31.4766 0 30.1957 1.29315 30.1957 3.00761V21.0064C30.1957 22.1416 30.3367 23.1246 31.3297 23.8034L43.4571 31.8373C44.738 32.6741 44.8085 33.5693 44.8085 35.629V44.0609C44.8085 46.1264 44.7204 47.0217 43.4571 47.8584L31.6059 55.6173C30.1311 56.6062 30.1957 57.3435 30.1957 58.7712V67.8057C30.1957 69.1691 30.7774 70.0059 32.3991 70.0059H36.9234C38.6097 70.0059 39.4793 69.2803 40.5545 68.4669L56.4188 56.7174C57.5881 55.8338 58.1581 54.6343 58.1581 53.0076V3.00761C58.1522 1.2639 57.0593 0 55.138 0Z"
       class="ssu-logo-badge-right"
       id="path26"
       style="fill:#0abef0;fill-opacity:1" />
  </g>
</svg>
