<?xml version="1.0" encoding="UTF-8"?>
<svg width="600" height="185" version="1.1" xml:space="preserve" xmlns="http://www.w3.org/2000/svg">
 <path d="m208.81 11.078-25.362 56.92h9.2894l6.4959-15.668h26.468l-4.0167 3.9382 4.854 11.729h9.3089l-25.368-56.92zm0.85042 16.047 7.3332 17.78h-14.693zm259.46-4.0584-3.5783-3.7615h3.5783v-0.02609h11.553c3.2447 0 5.8223 0.9878 7.6605 2.9242 1.8317 1.9233 2.7606 4.4549 2.7606 7.5033 0 3.1204-0.92892 5.6717-2.7475 7.6081-1.8448 1.9364-4.4222 2.911-7.6734 2.911h-11.553zm-8.3212-11.082v56.914h8.3212v-21.378h11.114l14.902 21.378h9.0145l-15.432-22.648 1.8382-0.92894c2.826-1.4326 5.0829-3.513 6.6988-6.1754 1.6158-2.6559 2.427-5.8221 2.427-9.4398 0-2.6429-0.45791-5.1092-1.3738-7.2874-0.91585-2.1719-2.2177-4.0428-3.84-5.5671-1.642-1.5438-3.6438-2.7541-5.9529-3.5849-2.3222-0.85044-4.9325-1.2822-7.7585-1.2822zm8.3212 11.082-3.5783-3.7615h3.5783v-0.02609h11.553c3.2447 0 5.8223 0.9878 7.6605 2.9242 1.8317 1.9233 2.7606 4.4549 2.7606 7.5033 0 3.1204-0.92892 5.6717-2.7475 7.6081-1.8448 1.9364-4.4222 2.911-7.6734 2.911h-11.553zm-8.3212-11.082v56.914h8.3212v-21.378h11.114l14.902 21.378h9.0145l-15.432-22.648 1.8382-0.92894c2.826-1.4326 5.0829-3.513 6.6988-6.1754 1.6158-2.6559 2.427-5.8221 2.427-9.4398 0-2.6429-0.45791-5.1092-1.3738-7.2874-0.91585-2.1719-2.2177-4.0428-3.84-5.5671-1.642-1.5438-3.6438-2.7541-5.9529-3.5849-2.3222-0.85044-4.9325-1.2822-7.7585-1.2822zm-88.543-1.9e-5v56.914h36.96v-7.5689h-28.208v-13.653l-3.539-3.5456h14.981v0.01972h16.858v-7.5818h-28.3v-17.022h28.3v-7.5623zm-269.92 10.393-2.9373-3.1008h14.49c3.2512 0 5.8221 0.98782 7.6734 2.9242 1.8317 1.9233 2.7672 4.4549 2.7672 7.5033 0 3.1204-0.93547 5.6717-2.7672 7.6147-1.8448 1.9298-4.4156 2.9045-7.6734 2.9045h-11.553zm-8.3212-10.395v56.92h8.3212v-21.384h11.127l14.896 21.384h9.0145l-15.432-22.648 1.8382-0.92892c2.826-1.4392 5.0829-3.5195 6.6988-6.1754 1.6158-2.6625 2.427-5.8286 2.427-9.4463 0-2.6495-0.45137-5.1026-1.3738-7.2876-0.90931-2.1587-2.198-4.0428-3.84-5.5671-1.6485-1.5439-3.6438-2.7541-5.9465-3.5849-2.3222-0.85042-4.9325-1.2822-7.7651-1.2822zm8.3212 10.395-2.9373-3.1008h14.49c3.2512 0 5.8221 0.98782 7.6734 2.9242 1.8317 1.9233 2.7672 4.4549 2.7672 7.5033 0 3.1204-0.93547 5.6717-2.7672 7.6147-1.8448 1.9298-4.4156 2.9045-7.6734 2.9045h-11.553zm-8.3212-10.395v56.92h8.3212v-21.384h11.127l14.896 21.384h9.0145l-15.432-22.648 1.8382-0.92892c2.826-1.4392 5.0829-3.5195 6.6988-6.1754 1.6158-2.6625 2.427-5.8286 2.427-9.4463 0-2.6495-0.45137-5.1026-1.3738-7.2876-0.90931-2.1587-2.198-4.0428-3.84-5.5671-1.6485-1.5439-3.6438-2.7541-5.9465-3.5849-2.3222-0.85042-4.9325-1.2822-7.7651-1.2822zm-84.016 0.0013v56.914h8.5371v-23.014h26.337v-7.5818h-26.337v-15.497l-3.1662-3.2578h29.862v-7.5623zm283.91 0.18054c-2.1326 0.69343-3.9904 1.7139-5.5147 3.0287-1.5308 1.3345-2.7148 2.8718-3.6111 4.7232-0.88313 1.8055-1.3214 3.8792-1.3214 6.1754 0 1.8317 0.30746 3.5064 0.91584 4.9457 0.62801 1.4981 1.4981 2.8652 2.6103 4.0886 1.099 1.2364 2.4794 2.3878 4.0886 3.4148 1.6616 1.0598 3.5129 2.0607 5.4884 2.9831l6.1754 2.8718c2.4924 1.1383 4.383 2.198 5.7699 3.2251 1.2168 0.89623 2.6559 2.6166 2.6559 5.7372 0 2.6625-0.94856 4.7558-2.8326 6.2344-1.7467 1.3738-4.1476 2.0802-7.1044 2.0802-1.956 0-3.7484-0.26822-5.3249-0.80465-1.5504-0.52333-2.9831-1.256-4.2718-2.1587-1.2495-0.88313-2.4007-1.8775-3.4082-2.9829-0.57568-0.61493-1.1383-1.2691-1.6616-1.9364l-5.5474 4.239c1.9428 3.0616 4.5138 5.5932 7.6603 7.5492 3.5522 2.2045 7.7782 3.3231 12.554 3.3231 2.6888 0 5.2072-0.38595 7.4904-1.1317 2.2569-0.73267 4.2326-1.8055 5.8744-3.1793 1.6289-1.3542 2.9242-3.0419 3.8661-5.011 0.92894-1.9625 1.413-4.2063 1.413-6.6791 0-3.8073-1.0598-6.7445-3.2578-9.0277-2.3354-2.427-5.7372-4.6642-10.107-6.666l-6.6072-2.9568c-2.2962-1.0598-4.0952-2.0868-5.3707-3.068-1.1186-0.85698-2.4597-2.4794-2.4597-5.3643 0-3.2317 1.5831-4.9457 2.9176-5.8286 3.6765-2.427 9.479-2.1587 13.319 0.40555 1.5373 1.0205 2.9439 2.3681 4.2129 3.997l5.495-4.3111c-1.5242-2.3878-3.5717-4.4222-6.1166-6.0838-2.9766-1.9298-6.6399-2.9176-10.944-2.9176-2.5121 0-4.8801 0.36633-7.0454 1.0859-2.1326 0.69345-3.9904 1.714-5.5147 3.0289-1.5308 1.3345-2.7148 2.8718-3.6111 4.7232-0.88313 1.8055-1.3214 3.8792-1.3214 6.1754 0 1.8317 0.30745 3.5064 0.91583 4.9457 0.62802 1.4981 1.4981 2.8652 2.6103 4.0886 1.099 1.2364 2.4794 2.3878 4.0886 3.4148 1.6616 1.0598 3.513 2.0607 5.4884 2.9831l6.1754 2.8718c2.4923 1.1383 4.383 2.198 5.7699 3.2251 1.2168 0.89623 2.6559 2.6168 2.6559 5.7372 0 2.6625-0.94857 4.7558-2.8326 6.2344-1.7467 1.3738-4.1475 2.0802-7.1044 2.0802-1.956 0-3.7484-0.26822-5.3249-0.80465-1.5504-0.52333-2.9831-1.256-4.2718-2.1587-1.2495-0.88313-2.4007-1.8775-3.4082-2.9829-0.57567-0.61493-1.1383-1.2691-1.6616-1.9364l-5.5474 4.239c1.9428 3.0616 4.5138 5.5932 7.6603 7.5492 3.5522 2.2045 7.7782 3.3231 12.554 3.3231 2.6888 0 5.2072-0.38595 7.4904-1.1317 2.2569-0.73267 4.2326-1.8055 5.8744-3.1793 1.6289-1.3542 2.9242-3.0419 3.8661-5.011 0.92894-1.9625 1.413-4.2063 1.413-6.6791 0-3.8073-1.0598-6.7445-3.2578-9.0277-2.3354-2.427-5.7372-4.6642-10.107-6.666l-6.6072-2.9568c-2.2962-1.0598-4.0952-2.0868-5.3707-3.0682-1.1186-0.85698-2.4597-2.4792-2.4597-5.3643 0-3.2317 1.5831-4.9457 2.9176-5.8286 3.6765-2.427 9.479-2.1587 13.319 0.40557 1.5373 1.0205 2.9439 2.3681 4.2129 3.997l5.495-4.3111c-1.5242-2.3878-3.5717-4.4222-6.1166-6.0838-2.9766-1.9298-6.6399-2.9176-10.944-2.9176-2.5121 0-4.8801 0.36633-7.0454 1.0859m270.13 0c-2.1326 0.69343-3.9774 1.7139-5.5016 3.0287-1.5308 1.3149-2.7409 2.9045-3.6241 4.7232-0.88313 1.8055-1.328 3.8858-1.328 6.1754 0 1.8317 0.31401 3.5064 0.92894 4.9457 0.62147 1.4981 1.4981 2.8652 2.5971 4.0952 1.099 1.2233 2.4924 2.3746 4.0952 3.4082 1.6878 1.0728 3.539 2.0737 5.495 2.9831l6.1754 2.8718c2.4794 1.1383 4.3698 2.198 5.7633 3.2251 1.2168 0.89623 2.6559 2.6166 2.6559 5.7372 0 2.6625-0.94856 4.7558-2.8326 6.2344-1.7597 1.3738-4.1475 2.0802-7.111 2.0802-1.9494 0-3.7418-0.26822-5.3249-0.80465-1.5569-0.52988-2.9829-1.2625-4.2653-2.1587-1.2495-0.8766-2.3878-1.8775-3.4082-2.9829-0.58223-0.62146-1.1317-1.2691-1.6616-1.9364l-5.5408 4.2326c1.943 3.0682 4.5138 5.5998 7.6539 7.5557 3.5588 2.2045 7.7782 3.3231 12.547 3.3231 2.6951 0 5.2138-0.38593 7.5034-1.1317 2.2569-0.73267 4.2326-1.8055 5.8679-3.1793 1.6223-1.3672 2.9307-3.055 3.8532-5.011 0.94203-1.9691 1.4196-4.2063 1.4196-6.6791 0-3.8073-1.0728-6.7445-3.2512-9.0277-2.3354-2.427-5.7306-4.6642-10.107-6.666l-6.6006-2.9568c-2.2962-1.0598-4.082-2.0868-5.3773-3.068-1.1121-0.85698-2.4465-2.4794-2.4465-5.3643 0-3.2317 1.5766-4.9586 2.911-5.8286 3.6633-2.4073 9.4724-2.1522 13.312 0.39904 1.5373 1.0205 2.9439 2.3746 4.2129 4.0035l5.482-4.3111c-1.5111-2.3878-3.5588-4.4222-6.1101-6.0838-2.9634-1.9298-6.6399-2.9176-10.931-2.9176-2.5186 0-4.8867 0.37287-7.052 1.0859-2.1326 0.69343-3.9774 1.7139-5.5016 3.0287-1.5308 1.3149-2.7409 2.9045-3.6241 4.7232-0.88313 1.8055-1.328 3.8858-1.328 6.1754 0 1.8317 0.31401 3.5064 0.92894 4.9457 0.62147 1.4981 1.4981 2.8652 2.5971 4.0952 1.099 1.2233 2.4924 2.3746 4.0952 3.4082 1.6878 1.0728 3.539 2.0737 5.495 2.9831l6.1754 2.8718c2.4794 1.1383 4.3698 2.198 5.7633 3.2251 1.2168 0.89623 2.6559 2.6166 2.6559 5.7372 0 2.6625-0.94857 4.7558-2.8326 6.2344-1.7597 1.3738-4.1475 2.0802-7.111 2.0802-1.9494 0-3.7418-0.26822-5.3249-0.80465-1.5569-0.52988-2.9829-1.2625-4.2653-2.1587-1.2495-0.8766-2.3878-1.8775-3.4082-2.9829-0.58223-0.62146-1.1317-1.2691-1.6616-1.9364l-5.5408 4.2326c1.943 3.068 4.5138 5.5998 7.6539 7.5557 3.5588 2.2045 7.7782 3.3231 12.547 3.3231 2.6951 0 5.2138-0.38595 7.5034-1.1317 2.2569-0.73267 4.2326-1.8055 5.8679-3.1793 1.6223-1.3672 2.9307-3.055 3.8532-5.011 0.94203-1.9691 1.4196-4.2063 1.4196-6.6791 0-3.8073-1.0728-6.7445-3.2512-9.0277-2.3354-2.427-5.7306-4.6642-10.107-6.666l-6.6006-2.9568c-2.2962-1.0598-4.082-2.0868-5.3773-3.068-1.1121-0.85698-2.4465-2.4794-2.4465-5.3643 0-3.2317 1.5766-4.9586 2.911-5.8286 3.6633-2.4073 9.4724-2.1522 13.312 0.39904 1.5373 1.0205 2.9439 2.3746 4.2129 4.0035l5.482-4.3111c-1.5111-2.3878-3.5588-4.4222-6.1101-6.0838-2.9634-1.9298-6.6399-2.9176-10.931-2.9176-2.5186 0-4.8867 0.37287-7.052 1.0859m-70.976 111.23h11.546c3.2317 0 5.8157 0.9878 7.6473 2.9176 1.8317 1.9233 2.7672 4.4549 2.7672 7.5165 0 3.1204-0.9355 5.6914-2.7606 7.6342-1.8317 1.9757-4.4027 2.9766-7.6539 2.9766h-11.546zm-8.308-7.294v56.914h8.308v-17.918l-3.2775-3.4606h14.235v0.0135h0.6738c2.8194 0 5.4099-0.44486 7.739-1.3214 2.2896-0.86351 4.2914-2.0934 5.9465-3.6699 1.6354-1.57 2.9373-3.441 3.8466-5.5866 0.84388-1.9757 1.3018-4.2194 1.3607-6.666v-1.1514c-0.059-2.4402-0.51682-4.7035-1.3607-6.7184-0.90932-2.1587-2.2045-4.0428-3.84-5.5671-1.642-1.5438-3.6372-2.7475-5.9399-3.5914-2.3157-0.84389-4.926-1.2757-7.7519-1.2757zm8.308 7.294h11.546c3.2317 0 5.8157 0.9878 7.6473 2.9176 1.8317 1.9233 2.7672 4.4549 2.7672 7.5165 0 3.1204-0.9355 5.6914-2.7606 7.6342-1.8317 1.9757-4.4027 2.9766-7.6539 2.9766h-11.546zm-8.308-7.294v56.914h8.308v-17.918l-3.2775-3.4606h14.235v0.0135h0.6738c2.8194 0 5.4099-0.44486 7.739-1.3214 2.2896-0.86351 4.2914-2.0934 5.9465-3.6699 1.6354-1.57 2.9373-3.441 3.8466-5.5866 0.84388-1.9757 1.3018-4.2194 1.3607-6.666v-1.1514c-0.059-2.4402-0.51682-4.7035-1.3607-6.7184-0.90932-2.1587-2.2045-4.0428-3.84-5.5671-1.642-1.5438-3.6372-2.7475-5.9399-3.5914-2.3157-0.84389-4.926-1.2757-7.7519-1.2757zm-189.6 48.577c-2.5644-1.0336-4.8148-2.5055-6.7118-4.3698-1.9102-1.871-3.4016-4.141-4.4354-6.7576-1.0205-2.5774-1.5438-5.4494-1.5438-8.5371 0-3.0746 0.52335-5.94 1.5504-8.4977 1.027-2.5708 2.5186-4.8409 4.4156-6.7315 1.8971-1.8971 4.1539-3.3887 6.7249-4.4354 4.9652-2.0344 11.631-2.1195 16.878 0 2.584 1.0467 4.867 2.5316 6.7839 4.4354 1.9036 1.9102 3.4016 4.1736 4.4485 6.7249 1.0598 2.5644 1.6027 5.4297 1.6027 8.5042 0 3.0877-0.54297 5.9595-1.6027 8.5566-1.0467 2.5774-2.5447 4.8475-4.4614 6.7381-1.9102 1.8644-4.1868 3.3428-6.7708 4.3764-2.584 1.0401-5.4036 1.57-8.367 1.57-3.1008 0-5.9661-0.52988-8.5108-1.5766m-3.4018-46.375c-3.6175 1.4523-6.8427 3.5064-9.5706 6.1035-2.728 2.5774-4.8998 5.6717-6.4698 9.1585-1.5569 3.4932-2.3615 7.3464-2.3615 11.448 0 4.1147 0.80464 7.9678 2.3615 11.442 1.5766 3.5195 3.7354 6.6138 6.424 9.1846 2.6887 2.5774 5.9137 4.625 9.5772 6.0838 7.3595 2.9242 16.354 2.9176 23.721 0 3.6765-1.4654 6.9082-3.513 9.6164-6.0904 2.7083-2.5579 4.8867-5.639 6.4764-9.1781 1.57-3.4932 2.3551-7.3398 2.3551-11.442 0-4.0886-0.78501-7.9417-2.3551-11.448-1.5896-3.5064-3.7615-6.6007-6.4764-9.1585-2.7083-2.584-5.94-4.6316-9.6294-6.1035-3.6699-1.4654-7.6669-2.2045-11.854-2.2045-4.1671 0-8.1445 0.73922-11.814 2.2045m3.4018 46.375c-2.5645-1.0336-4.8148-2.5055-6.7118-4.3698-1.9102-1.871-3.4016-4.141-4.4354-6.7576-1.0205-2.5774-1.5438-5.4494-1.5438-8.5371 0-3.0746 0.52335-5.94 1.5504-8.4977 1.027-2.5708 2.5186-4.8409 4.4156-6.7315 1.8971-1.8971 4.1539-3.3887 6.7249-4.4353 4.9652-2.0344 11.631-2.1195 16.878 0 2.584 1.0467 4.867 2.5316 6.7839 4.4353 1.9036 1.9102 3.4016 4.1736 4.4485 6.725 1.0598 2.5644 1.6027 5.4297 1.6027 8.5042 0 3.0877-0.54297 5.9595-1.6027 8.5566-1.0467 2.5774-2.5447 4.8475-4.4614 6.7381-1.9102 1.8644-4.1868 3.3428-6.7708 4.3764-2.584 1.0401-5.4036 1.57-8.367 1.57-3.1008 0-5.9661-0.52987-8.5108-1.5766m-3.4018-46.375c-3.6176 1.4523-6.8427 3.5064-9.5706 6.1035-2.728 2.5774-4.8998 5.6717-6.4698 9.1585-1.557 3.4932-2.3615 7.3464-2.3615 11.448 0 4.1147 0.80464 7.9678 2.3615 11.442 1.5766 3.5195 3.7354 6.6138 6.424 9.1846 2.6888 2.5774 5.9137 4.625 9.5772 6.0838 7.3595 2.9242 16.354 2.9176 23.721 0 3.6765-1.4654 6.9082-3.513 9.6165-6.0904 2.7082-2.5579 4.8867-5.639 6.4764-9.1781 1.57-3.4932 2.3551-7.3398 2.3551-11.442 0-4.0886-0.785-7.9417-2.3551-11.448-1.5896-3.5064-3.7616-6.6007-6.4764-9.1585-2.7083-2.584-5.94-4.6316-9.6294-6.1035-3.6699-1.4654-7.6669-2.2045-11.854-2.2045-4.1671 0-8.1445 0.73922-11.814 2.2045m129.26-1.2998v33.952c0 2.4402-0.37942 4.6316-1.1186 6.5025-0.7654 1.9036-1.8252 3.539-3.1596 4.8409-1.3476 1.3083-2.9568 2.3157-4.8017 2.97-3.539 1.2691-8.0136 1.2691-11.579-0.0135-1.8317-0.64107-3.441-1.6354-4.7885-2.9634-1.3542-1.3018-2.4139-2.9373-3.1596-4.8343-0.74578-1.8906-1.1186-4.0689-1.1186-6.5024v-33.952h-8.6221v33.05c0 3.7223 0.58875 7.1175 1.7663 10.055 1.171 2.9373 2.8064 5.4492 4.8736 7.4968 2.0607 2.0344 4.5596 3.6046 7.4183 4.6839 5.7372 2.1784 13.123 2.1784 18.808 0 2.826-1.0794 5.3054-2.6493 7.3791-4.6905 2.0671-2.041 3.7289-4.5596 4.9259-7.5033 1.2037-2.9503 1.799-6.3389 1.799-10.042v-33.05zm0 0v33.952c0 2.4402-0.37942 4.6316-1.1186 6.5025-0.7654 1.9036-1.8252 3.539-3.1596 4.8409-1.3476 1.3083-2.9568 2.3157-4.8017 2.97-3.539 1.2691-8.0136 1.2691-11.579-0.0135-1.8317-0.64107-3.441-1.6354-4.7885-2.9634-1.3542-1.3018-2.4139-2.9373-3.1596-4.8343-0.74578-1.8906-1.1186-4.0689-1.1186-6.5024v-33.952h-8.6221v33.05c0 3.7223 0.58875 7.1175 1.7663 10.055 1.171 2.9373 2.8064 5.4492 4.8736 7.4968 2.0607 2.0344 4.5596 3.6046 7.4183 4.6839 5.7372 2.1784 13.123 2.1784 18.808 0 2.826-1.0794 5.3054-2.6493 7.3791-4.6905 2.0671-2.041 3.7289-4.5596 4.9259-7.5033 1.2037-2.9503 1.799-6.3389 1.799-10.042v-33.05zm-326.4 1.3018c-3.6633 1.4654-6.8819 3.5064-9.5575 6.0904-2.7017 2.5906-4.8343 5.6651-6.3521 9.152-1.5308 3.4998-2.3027 7.3725-2.3027 11.468 0 4.1083 0.77193 7.9549 2.3027 11.455 1.5177 3.5064 3.6567 6.5941 6.3455 9.152 2.6822 2.5906 5.9007 4.6381 9.5641 6.1035 6.2866 2.5055 14.058 2.8849 20.574 1.0532 2.728-0.7654 5.2661-1.8186 7.5689-3.1401 2.2962-1.3214 4.3698-2.9307 6.1688-4.7756 1.7139-1.7401 3.1924-3.6568 4.3961-5.698v-15.262h-25.14v6.9735h16.485v7.196l-0.3598 0.45139c-1.8382 2.4923-4.2455 4.4812-7.1436 5.9202-2.9045 1.4326-6.3128 2.1653-10.133 2.1653-3.2446 0-6.2146-0.5495-8.8249-1.6223-2.6364-1.0728-4.9259-2.5906-6.8427-4.5204-1.9233-1.943-3.4082-4.2521-4.4156-6.8819-1.0205-2.6037-1.5242-5.495-1.5242-8.5698 0-2.9961 0.48409-5.8352 1.4654-8.4323 0.99435-2.6103 2.4402-4.8867 4.2848-6.7903 1.8382-1.8906 4.0886-3.3886 6.6726-4.4419 2.5447-1.0336 5.4231-1.5635 8.5566-1.5635 3.9709 0 7.4838 0.84389 10.434 2.5121 2.4007 1.3672 4.5792 3.1988 6.4829 5.4428l5.9987-4.8736c-2.5513-3.1988-5.6063-5.7502-9.1322-7.6015-3.9774-2.1065-8.55-3.1662-13.607-3.1662-4.2652 0-8.2819 0.74575-11.965 2.2045-3.6633 1.4654-6.8819 3.5064-9.5575 6.0904-2.7017 2.5905-4.8343 5.6651-6.3521 9.152-1.5308 3.4998-2.3027 7.3725-2.3027 11.468 0 4.1083 0.77193 7.9549 2.3027 11.455 1.5177 3.5064 3.6568 6.5941 6.3455 9.152 2.6822 2.5905 5.9007 4.6381 9.5641 6.1035 6.2866 2.5055 14.058 2.8849 20.574 1.0532 2.728-0.7654 5.2662-1.8186 7.5689-3.1401 2.2962-1.3214 4.3698-2.9307 6.1688-4.7756 1.7139-1.7402 3.1925-3.6568 4.3961-5.698v-15.262h-25.14v6.9735h16.485v7.196l-0.3598 0.45138c-1.8382 2.4924-4.2455 4.4812-7.1436 5.9203-2.9045 1.4326-6.3128 2.1653-10.133 2.1653-3.2446 0-6.2146-0.5495-8.8249-1.6223-2.6364-1.0729-4.9259-2.5906-6.8427-4.5204-1.9233-1.943-3.4082-4.2521-4.4156-6.8819-1.0205-2.6037-1.5242-5.495-1.5242-8.5698 0-2.9961 0.48409-5.8352 1.4654-8.4323 0.99435-2.6103 2.4402-4.8867 4.2848-6.7903 1.8382-1.8906 4.0886-3.3887 6.6726-4.4419 2.5447-1.0336 5.4231-1.5635 8.5566-1.5635 3.9709 0 7.4838 0.84389 10.434 2.5121 2.4007 1.3672 4.5792 3.1988 6.4829 5.4428l5.9987-4.8736c-2.5513-3.1988-5.6063-5.7501-9.1322-7.6015-3.9774-2.1065-8.55-3.1662-13.607-3.1662-4.2652 0-8.2819 0.74575-11.965 2.2045m97.612 8.8779-3.5717-3.7747h3.5717v-0.0135h11.566c3.2381 0 5.8157 0.98779 7.6603 2.9176 1.8317 1.9298 2.7672 4.4614 2.7672 7.5165 0 3.114-0.93547 5.6651-2.7672 7.6015-1.8317 1.9364-4.4091 2.9176-7.6603 2.9176h-11.566zm-8.3146-11.082v56.914h8.3146v-21.365h11.127l14.896 21.365h9.0277l-15.445-22.648 1.8382-0.92892c2.826-1.4327 5.0829-3.5064 6.6988-6.182 1.6289-2.6429 2.4402-5.8157 2.4402-9.4266 0-2.6624-0.46447-5.1156-1.3869-7.294-0.9093-2.1784-2.198-4.0428-3.84-5.5671-1.642-1.5373-3.6438-2.7475-5.9466-3.5914-2.3222-0.8439-4.9325-1.2756-7.765-1.2756zm8.3146 11.082-3.5717-3.7747h3.5717v-0.0135h11.566c3.2381 0 5.8157 0.98779 7.6603 2.9176 1.8317 1.9298 2.7672 4.4614 2.7672 7.5165 0 3.114-0.93547 5.6651-2.7672 7.6015-1.8317 1.9364-4.4091 2.9176-7.6603 2.9176h-11.566zm-8.3146-11.082v56.914h8.3146v-21.365h11.127l14.896 21.365h9.0277l-15.445-22.648 1.8382-0.92892c2.826-1.4327 5.0829-3.5064 6.6988-6.182 1.6289-2.6429 2.4402-5.8157 2.4402-9.4266 0-2.6624-0.46447-5.1156-1.3869-7.294-0.9093-2.1784-2.198-4.0428-3.84-5.5671-1.642-1.5373-3.6438-2.7475-5.9466-3.5914-2.3222-0.8439-4.9325-1.2756-7.765-1.2756z"/>
</svg>