<?xml version="1.0" encoding="UTF-8"?>
<svg version="1.1" xmlns="http://www.w3.org/2000/svg" width="652" height="283">
<path d="M0 0 C8.01461979 -0.1158896 16.02888913 -0.20471166 24.04413986 -0.25906086 C27.7660559 -0.28514706 31.48739843 -0.32052492 35.20898438 -0.37719727 C38.80111569 -0.43155547 42.39269572 -0.4614279 45.9852066 -0.47438622 C47.35520355 -0.48361959 48.72517056 -0.50165106 50.09493256 -0.52865028 C52.01448599 -0.56497896 53.93459511 -0.56704269 55.85449219 -0.56762695 C56.94703308 -0.57873001 58.03957397 -0.58983307 59.16522217 -0.60127258 C62.96536531 0.2047595 63.90471961 1.82037536 66 5 C66.63421875 5.8971875 67.2684375 6.794375 67.921875 7.71875 C68.52515625 8.6365625 69.1284375 9.554375 69.75 10.5 C70.36359375 11.4178125 70.9771875 12.335625 71.609375 13.28125 C73.15136033 16.29591794 73.60613894 17.67918751 73 21 C71.33984375 23.62890625 71.33984375 23.62890625 68.9375 26.5625 C68.03408942 27.69837107 67.13182579 28.83515494 66.23046875 29.97265625 C65.72563965 30.60187988 65.22081055 31.23110352 64.70068359 31.87939453 C61.34833507 36.05948343 58.03354822 40.26565745 54.75 44.5 C54.05769287 45.36052979 53.36538574 46.22105957 52.65209961 47.10766602 C52.01925049 47.92807373 51.38640137 48.74848145 50.734375 49.59375 C49.87150879 50.68719727 49.87150879 50.68719727 48.99121094 51.80273438 C47.72837306 53.99840467 47.72837306 53.99840467 48.61352539 56.48193359 C50.05032409 59.09139683 51.6095536 61.35243136 53.44921875 63.6953125 C54.13306641 64.57703125 54.81691406 65.45875 55.52148438 66.3671875 C56.23626953 67.27726562 56.95105469 68.18734375 57.6875 69.125 C59.09173369 70.91575584 60.49148663 72.71003441 61.88671875 74.5078125 C62.50764404 75.29816895 63.12856934 76.08852539 63.76831055 76.90283203 C64.50476807 77.92489746 65.24122559 78.94696289 66 80 C66.59072296 80.78017487 67.18144592 81.56034973 67.79006958 82.36416626 C72.79254056 89.43520105 73.98653056 94.62707019 73.71875 103.1953125 C73.71121704 104.30937469 73.70368408 105.42343689 73.69592285 106.57125854 C73.66366266 110.0904931 73.58202495 113.6066121 73.5 117.125 C73.47343026 119.52340485 73.4499636 121.92184619 73.4296875 124.3203125 C73.37954307 128.67379232 73.3240682 133.02673649 73.22460938 137.37939453 C73.19627014 138.68531052 73.19627014 138.68531052 73.1673584 140.01760864 C73 142 73 142 72 143 C70.48071962 143.07179964 68.95832518 143.08392007 67.4375 143.0625 C66.61121094 143.05347656 65.78492188 143.04445312 64.93359375 143.03515625 C64.29550781 143.02355469 63.65742188 143.01195312 63 143 C60.61740256 139.18116981 60.30593255 135.06318177 59.78125 130.69140625 C59.62613953 129.48580299 59.62613953 129.48580299 59.46789551 128.25584412 C59.13835898 125.69221723 58.81813639 123.12756492 58.5 120.5625 C58.08057854 117.18777532 57.65219086 113.81435535 57.21875 110.44140625 C57.07959167 109.28494347 57.07959167 109.28494347 56.93762207 108.1051178 C56.18045202 102.21376553 55.47112854 97.73787173 50.69140625 93.94921875 C49.70213135 93.15366577 49.70213135 93.15366577 48.69287109 92.34204102 C47.98984863 91.79604248 47.28682617 91.25004395 46.5625 90.6875 C45.84400879 90.121521 45.12551758 89.55554199 44.38525391 88.97241211 C42.93836056 87.83755261 41.48755368 86.70766348 40.03271484 85.58300781 C38.23431626 84.18247737 36.46719187 82.752677 34.70703125 81.3046875 C33.77246094 80.56476563 32.83789062 79.82484375 31.875 79.0625 C31.06804687 78.41410156 30.26109375 77.76570313 29.4296875 77.09765625 C27.02634794 75.7427585 27.02634794 75.7427585 24.3203125 76.43359375 C21.11840987 77.83541474 21.11840987 77.83541474 18.890625 79.44995117 C11.5768952 84.42343731 5.59990046 84.89604922 -3.125 84.875 C-4.47129666 84.8893514 -5.81757208 84.90583358 -7.16381836 84.92431641 C-9.98583435 84.95803106 -12.807187 84.9731615 -15.62939453 84.9765625 C-19.3238483 84.98652144 -23.01361761 85.06271144 -26.70666504 85.16134644 C-29.62197893 85.23649451 -32.53742196 85.2887498 -35.45330811 85.33599854 C-36.84917854 85.36180984 -38.2449335 85.395025 -39.64044189 85.43597412 C-51.9042347 85.77327922 -51.9042347 85.77327922 -55.77734375 82.6640625 C-58.95832044 78.85136285 -60.26763794 76.95130189 -60 72 C-57.62990409 71.6078115 -55.25928475 71.21929739 -52.88793945 70.8347168 C-50.7147129 70.48011068 -48.54269505 70.11803236 -46.37182617 69.74926758 C-39.5946101 68.6276086 -32.87708819 67.76619896 -26.0390625 67.1484375 C-6.90998984 66.04592451 -6.90998984 66.04592451 8.4375 56 C9.93750033 54.02413749 11.33539745 52.02390856 12.68310547 49.94140625 C14.79855814 46.82274113 17.391851 44.20646622 20 41.5 C20.96853814 40.45272823 21.93466197 39.40321882 22.8984375 38.3515625 C25.18283963 35.87617182 27.48269759 33.41587549 29.7890625 30.9609375 C30.42714844 30.28095703 31.06523438 29.60097656 31.72265625 28.90039062 C32.96560656 27.57704414 34.21032435 26.25535493 35.45703125 24.93554688 C36.02035156 24.33548828 36.58367187 23.73542969 37.1640625 23.1171875 C37.66373535 22.58722168 38.1634082 22.05725586 38.67822266 21.51123047 C40.21000573 19.82609597 40.21000573 19.82609597 42 17 C41.0620459 16.83395264 40.1240918 16.66790527 39.15771484 16.49682617 C35.65599098 15.87436245 32.15657965 15.2396401 28.65771484 14.60131836 C27.14724441 14.32749511 25.63617829 14.05693583 24.12451172 13.78979492 C21.94331163 13.40373545 19.76457126 13.00572646 17.5859375 12.60546875 C16.91694427 12.48970993 16.24795105 12.37395111 15.5586853 12.25468445 C8.9038298 11.00837116 4.11345611 8.36147727 -1 4 C-0.67 2.68 -0.34 1.36 0 0 Z " fill="#00B140" transform="translate(79,80)"/>
<path d="M0 0 C12.5915625 -0.061875 12.5915625 -0.061875 25.4375 -0.125 C28.07032959 -0.14320801 30.70315918 -0.16141602 33.41577148 -0.18017578 C35.52587684 -0.18602248 37.63598447 -0.19111762 39.74609375 -0.1953125 C41.36118835 -0.2106604 41.36118835 -0.2106604 43.00891113 -0.22631836 C54.45700854 -0.22894196 63.77749685 1.64067405 72.6015625 9.41015625 C79.42423833 16.92347104 81.26580576 26.11895985 81 36 C80.01551041 44.44588437 77.26123539 51.133833 71 57 C63.8286385 62 63.8286385 62 60 62 C61.80955287 65.18918142 63.62272422 68.3762878 65.4375 71.5625 C65.97793945 72.51165283 66.51837891 73.46080566 67.07519531 74.4387207 C70.75178815 80.87384271 74.50213088 87.25603238 78.40795898 93.55493164 C81 97.78781151 81 97.78781151 81 100 C76.95986485 100.29146369 72.92242571 100.46829657 68.875 100.625 C67.16183594 100.75068359 67.16183594 100.75068359 65.4140625 100.87890625 C62.02953422 100.9772937 59.26654455 100.9041278 56 100 C53.03563777 97.11859425 51.66368372 93.7403561 50 90 C48.87636418 88.00964421 47.7325239 86.03057985 46.5703125 84.0625 C45.42048289 82.04245844 44.27205449 80.02161867 43.125 78 C42.53203125 76.96488281 41.9390625 75.92976563 41.328125 74.86328125 C40.76867187 73.87714844 40.20921875 72.89101562 39.6328125 71.875 C38.87315186 70.54082031 38.87315186 70.54082031 38.09814453 69.1796875 C37 67 37 67 37 65 C32.05 65 27.1 65 22 65 C22 76.55 22 88.1 22 100 C14.74 100 7.48 100 0 100 C0 67 0 34 0 0 Z M22 20 C22 28.25 22 36.5 22 45 C26.37566252 45.10804105 30.74865081 45.18735287 35.125 45.25 C36.98125 45.30027344 36.98125 45.30027344 38.875 45.3515625 C47.77708734 45.54731886 47.77708734 45.54731886 55 41 C57.37302167 38.07327328 57.95966626 36.31690796 58.4375 32.5625 C57.91233829 28.28618321 56.76012209 26.28230735 54 23 C50.1104267 20.13495596 47.39674144 19.63890889 42.60546875 19.70703125 C41.40341797 19.71669922 40.20136719 19.72636719 38.96289062 19.73632812 C37.09407227 19.7740332 37.09407227 19.7740332 35.1875 19.8125 C33.92228516 19.82603516 32.65707031 19.83957031 31.35351562 19.85351562 C28.23549456 19.88881398 25.11769286 19.94261915 22 20 Z " fill="#004149" transform="translate(215,85)"/>
<path d="M0 0 C23.43 0 46.86 0 71 0 C71 6.6 71 13.2 71 20 C54.83 20 38.66 20 22 20 C22 26.6 22 33.2 22 40 C37.84 40 53.68 40 70 40 C70 46.27 70 52.54 70 59 C54.16 59 38.32 59 22 59 C22 66.26 22 73.52 22 81 C38.17 81 54.34 81 71 81 C71 87.27 71 93.54 71 100 C47.57 100 24.14 100 0 100 C0 67 0 34 0 0 Z " fill="#004149" transform="translate(310,85)"/>
<path d="M0 0 C8.229375 -0.04125 16.45875 -0.0825 24.9375 -0.125 C27.51812256 -0.14320801 30.09874512 -0.16141602 32.75756836 -0.18017578 C34.82665805 -0.18602268 36.89575005 -0.19111777 38.96484375 -0.1953125 C40.01998169 -0.20554443 41.07511963 -0.21577637 42.16223145 -0.22631836 C53.15317764 -0.22888664 62.35519278 1.46921372 70.98046875 8.6484375 C77.30071663 15.03606542 80.10982578 23.84326594 80.375 32.75 C80.29209476 34.16975215 80.16738208 35.58771367 80 37 C79.9175 37.73734375 79.835 38.4746875 79.75 39.234375 C78.41492186 47.3004721 73.73307158 54.6424337 67.23046875 59.61889648 C57.76794448 65.47807991 46.94799994 65.52064415 36.1875 65.25 C29.1646875 65.12625 29.1646875 65.12625 22 65 C22 76.55 22 88.1 22 100 C14.74 100 7.48 100 0 100 C0 67 0 34 0 0 Z M22 20 C22 28.25 22 36.5 22 45 C26.22955053 45.08093399 30.45755211 45.1404757 34.6875 45.1875 C36.48477539 45.22520508 36.48477539 45.22520508 38.31835938 45.26367188 C40.05375977 45.27817383 40.05375977 45.27817383 41.82421875 45.29296875 C43.41882935 45.31653442 43.41882935 45.31653442 45.0456543 45.34057617 C49.49662357 44.82746964 52.07278855 42.85203215 55.3125 39.875 C57.66352345 35.86955264 57.93445961 32.53652188 57 28 C54.94452447 24.16527885 52.0551557 21.56484889 48 20 C45.09627521 19.72530453 45.09627521 19.72530453 41.921875 19.8046875 C40.76171875 19.81113281 39.6015625 19.81757812 38.40625 19.82421875 C37.1996875 19.84097656 35.993125 19.85773438 34.75 19.875 C33.52796875 19.88402344 32.3059375 19.89304687 31.046875 19.90234375 C28.03116634 19.92590397 25.01555842 19.96177461 22 20 Z " fill="#004149" transform="translate(397,85)"/>
<path d="M0 0 C20.84493256 -2.98648396 20.84493256 -2.98648396 27.16845703 1.55859375 C30.94308396 5.90147822 33.28030402 11.0356799 35.65673828 16.23535156 C37.95531269 20.96618701 40.87813276 25.29001892 43.75 29.6875 C44.76840596 31.29381315 45.78429881 32.90172431 46.796875 34.51171875 C47.22323242 35.18678467 47.64958984 35.86185059 48.08886719 36.55737305 C48.53987793 37.27147339 48.53987793 37.27147339 49 38 C49.56545532 37.06486572 49.56545532 37.06486572 50.14233398 36.11083984 C70.45974329 2.54025671 70.45974329 2.54025671 73 0 C74.78071246 -0.08726223 76.5648314 -0.10699041 78.34765625 -0.09765625 C79.42724609 -0.09443359 80.50683594 -0.09121094 81.61914062 -0.08789062 C83.32360352 -0.07532227 83.32360352 -0.07532227 85.0625 -0.0625 C86.77276367 -0.05573242 86.77276367 -0.05573242 88.51757812 -0.04882812 C91.34510351 -0.03699747 94.1725264 -0.0205141 97 0 C96.09839494 4.20901197 94.04922134 7.41502115 91.75 11 C91.31034912 11.69424072 90.87069824 12.38848145 90.41772461 13.10375977 C85.22307615 21.27863369 79.9246642 29.38737558 74.63134766 37.49853516 C71.99790155 41.53659094 69.3724476 45.57979521 66.75 49.625 C66.05112671 50.69995728 66.05112671 50.69995728 65.33813477 51.79663086 C61.52755766 57.67640393 60.81458563 61.21569142 60.68359375 68.1640625 C60.66281265 69.07127045 60.64203156 69.97847839 60.62062073 70.91317749 C60.55512865 73.8170398 60.49624186 76.72099405 60.4375 79.625 C60.39431445 81.59115542 60.35070015 83.55730147 60.30664062 85.5234375 C60.19863907 90.34886539 60.09956323 95.17436101 60 100 C52.74 100 45.48 100 38 100 C38.10183594 97.30714844 38.20367188 94.61429687 38.30859375 91.83984375 C38.83163449 70.37810762 38.42672689 55.41319167 24.03222656 38.48242188 C20.67776155 34.38484856 17.93872189 29.91504663 15.125 25.4375 C14.07431473 23.81205353 13.02101433 22.18829388 11.96484375 20.56640625 C11.22016846 19.41809326 11.22016846 19.41809326 10.46044922 18.24658203 C9.04277184 16.06579513 7.61794238 13.88984293 6.19140625 11.71484375 C5.35666733 10.43496333 4.52202518 9.15501979 3.6875 7.875 C2.96949219 6.77929688 2.25148438 5.68359375 1.51171875 4.5546875 C0 2 0 2 0 0 Z " fill="#004149" transform="translate(536,85)"/>
<path d="M0 0 C7.26 0 14.52 0 22 0 C22 26.73 22 53.46 22 81 C35.86 81 49.72 81 64 81 C64 87.27 64 93.54 64 100 C42.88 100 21.76 100 0 100 C0 67 0 34 0 0 Z " fill="#004149" transform="translate(488,85)"/>
<path d="M0 0 C4.84189704 2.33448607 8.71302582 5.78256455 10.75 10.875 C11.55015392 17.67630834 10.83340596 22.33001048 7 28 C1.67844731 32.94144179 -1.90819916 33.34926364 -9.015625 33.28125 C-14.31807409 32.78154276 -16.87264655 30.2492295 -20.3125 26.4375 C-23.49293734 21.84353495 -23.50021734 17.40049459 -23 12 C-19.21819228 1.0747777 -10.53544589 -0.99286925 0 0 Z " fill="#00B140" transform="translate(172,59)"/>
</svg>
