<?xml version="1.0" encoding="UTF-8"?>
<svg version="1.1" xmlns="http://www.w3.org/2000/svg" width="394" height="364">
<path d="M0 0 C1.07460844 -0.00538554 2.14921687 -0.01077108 3.2563892 -0.01631981 C6.83975053 -0.03057176 10.42274102 -0.0235023 14.00611877 -0.01637268 C16.58232418 -0.02207765 19.15852705 -0.0290424 21.73472595 -0.03717041 C27.99538269 -0.05432508 34.25593892 -0.05520542 40.51661306 -0.04995751 C45.60737947 -0.04590853 50.69811629 -0.04736798 55.7888813 -0.05270576 C56.87760135 -0.0538284 56.87760135 -0.0538284 57.98831575 -0.05497371 C59.46301564 -0.05650526 60.93771552 -0.05804361 62.41241539 -0.05958868 C76.22693715 -0.07330153 90.0414022 -0.06788447 103.85592265 -0.05640347 C116.48101064 -0.0464712 129.10595207 -0.05941375 141.73101746 -0.08333766 C154.71068835 -0.10774727 167.69029103 -0.11733203 180.6699844 -0.11068493 C187.95062051 -0.10719699 195.23114392 -0.10939668 202.51176262 -0.12693596 C209.35810152 -0.14322523 216.20415633 -0.13844738 223.05048752 -0.11963081 C225.56027104 -0.1159455 228.0700753 -0.11905166 230.57983971 -0.1295166 C234.01155597 -0.14273126 237.4423466 -0.13117343 240.87402344 -0.11352539 C241.86207535 -0.1231304 242.85012726 -0.1327354 243.86812013 -0.14263147 C254.67202604 -0.02867828 262.50383925 3.75154294 270.00050354 11.38768005 C277.08675054 18.67076725 278.59682922 27.72643654 278.50843811 37.50743103 C278.51779805 39.12062532 278.51779805 39.12062532 278.52734709 40.7664094 C278.54321916 44.34677382 278.53069495 47.92645198 278.51808167 51.50682068 C278.52350532 54.08317459 278.53062934 56.6595254 278.5393219 59.23587036 C278.55705631 65.4930819 278.55328995 71.7501009 278.54167134 78.00731981 C278.53261719 83.09520755 278.53142155 88.18304156 278.5357666 93.27093506 C278.53637953 93.99661294 278.53699247 94.72229081 278.53762397 95.46995893 C278.53890295 96.94441729 278.5401998 98.41887564 278.54151434 99.89333397 C278.55290525 113.7012056 278.53982986 127.5089708 278.51831287 141.31682497 C278.50044322 153.15022968 278.50354774 164.9834774 278.52198792 176.81687927 C278.543421 190.57722286 278.55180676 204.3374733 278.53953886 218.09783125 C278.53826474 219.56669583 278.53700725 221.03556043 278.5357666 222.50442505 C278.53484095 223.58833105 278.53484095 223.58833105 278.5338966 224.69413415 C278.530451 229.77261375 278.53625494 234.85103399 278.54568481 239.92950439 C278.55811116 246.77176528 278.54919339 253.61372556 278.52610779 260.45595741 C278.52082768 262.96412477 278.52232246 265.47231712 278.53115845 267.98047447 C278.54212448 271.40995995 278.52833604 274.83850326 278.50843811 278.26792908 C278.52182244 279.74898376 278.52182244 279.74898376 278.53547716 281.25995874 C278.4142674 292.06527253 274.63096568 299.89108567 267.00050354 307.38768005 C266.27347229 308.13018005 266.27347229 308.13018005 265.53175354 308.88768005 C258.62283927 315.33600003 249.98711723 315.82989699 241.00100708 315.77536011 C239.92639864 315.78074565 238.85179021 315.78613118 237.74461788 315.79167992 C234.16125655 315.80593186 230.57826606 315.7988624 226.99488831 315.79173279 C224.4186829 315.79743776 221.84248003 315.80440251 219.26628113 315.81253052 C213.00562439 315.82968519 206.74506816 315.83056553 200.48439402 315.82531761 C195.39362761 315.82126864 190.30289079 315.82272809 185.21212578 315.82806587 C184.48631241 315.82881429 183.76049904 315.82956272 183.01269133 315.83033382 C181.53799144 315.83186537 180.06329156 315.83340371 178.58859169 315.83494879 C164.77406993 315.84866164 150.95960488 315.84324458 137.14508443 315.83176357 C124.51999644 315.82183131 111.89505501 315.83477386 99.26998962 315.85869776 C86.29031873 315.88310738 73.31071605 315.89269214 60.33102268 315.88604504 C53.05038657 315.8825571 45.76986316 315.88475678 38.48924446 315.90229607 C31.64290556 315.91858534 24.79685075 315.91380749 17.95051956 315.89499092 C15.44073604 315.8913056 12.93093178 315.89441177 10.42116737 315.90487671 C6.98945111 315.91809136 3.55866048 315.90653354 0.12698364 315.8888855 C-0.86106827 315.8984905 -1.84912018 315.90809551 -2.86711305 315.91799158 C-13.67101896 315.80403839 -21.50283217 312.02381717 -28.99949646 304.38768005 C-36.08574346 297.10459286 -37.59582214 288.04892356 -37.50743103 278.26792908 C-37.51367099 277.19246622 -37.51991096 276.11700336 -37.52634001 275.00895071 C-37.54221208 271.42858628 -37.52968787 267.84890812 -37.51707458 264.26853943 C-37.52249824 261.69218551 -37.52962226 259.1158347 -37.53831482 256.53948975 C-37.55604923 250.28227821 -37.55228287 244.02525921 -37.54066426 237.7680403 C-37.53161011 232.68015255 -37.53041447 227.59231855 -37.53475952 222.50442505 C-37.53537245 221.77874717 -37.53598539 221.05306929 -37.53661689 220.30540118 C-37.53789587 218.83094281 -37.53919272 217.35648447 -37.54050726 215.88202614 C-37.55189817 202.0741545 -37.53882278 188.26638931 -37.51730579 174.45853513 C-37.49943614 162.62513043 -37.50254066 150.79188271 -37.52098083 138.95848083 C-37.54241392 125.19813725 -37.55079968 111.43788681 -37.53853178 97.67752886 C-37.53725766 96.20866427 -37.53600017 94.73979967 -37.53475952 93.27093506 C-37.53383387 92.18702906 -37.53383387 92.18702906 -37.53288952 91.08122596 C-37.52944392 86.00274636 -37.53524786 80.92432612 -37.54467773 75.84585571 C-37.55710408 69.00359482 -37.54818631 62.16163455 -37.52510071 55.31940269 C-37.5198206 52.81123533 -37.52131538 50.30304299 -37.53015137 47.79488564 C-37.5411174 44.36540016 -37.52732896 40.93685684 -37.50743103 37.50743103 C-37.51635392 36.52006124 -37.5252768 35.53269145 -37.53447008 34.51540136 C-37.41326032 23.71008757 -33.6299586 15.88427444 -25.99949646 8.38768005 C-25.51480896 7.89268005 -25.03012146 7.39768005 -24.53074646 6.88768005 C-17.62183219 0.43936007 -8.98611015 -0.05453689 0 0 Z " fill="#FEFEFE" transform="translate(75.99949645996094,22.612319946289063)"/>
<path d="M0 0 C32.34 0 64.68 0 98 0 C98 78.54 98 157.08 98 238 C19.46 238 -59.08 238 -140 238 C-140 204.34 -140 170.68 -140 136 C-131.59375 142.3046875 -131.59375 142.3046875 -127.75 145.4375 C-110.79368026 158.59026172 -91.51112125 164.6108073 -70.1875 164.4375 C-69.20145782 164.43243942 -69.20145782 164.43243942 -68.19549561 164.42727661 C-42.61382298 164.23738867 -19.79001998 154.45185832 -1 137 C20.66674254 113.67190978 27.31937527 87.58205176 26.23388672 56.61279297 C25.07118308 38.65278417 16.78088729 22.12984377 6 8 C4.02 5.36 2.04 2.72 0 0 Z " fill="#000000" transform="translate(217,61)"/>
<path d="M0 0 C18.09803263 -0.23390385 36.19567148 -0.41008926 54.2948904 -0.51812172 C62.69930574 -0.56962335 71.1027804 -0.6397982 79.5065918 -0.75439453 C86.83393102 -0.85426396 94.16058889 -0.91862762 101.48858982 -0.94088495 C105.36691839 -0.95389082 109.2432983 -0.98431029 113.12100029 -1.05730057 C116.77666314 -1.12554922 120.42958933 -1.14604672 124.08582878 -1.13107681 C126.05612126 -1.13510943 128.02612011 -1.18874072 129.99563599 -1.24420166 C135.17538422 -1.18438401 138.61731144 -1.09044621 142.77130318 2.18556595 C145.05957539 4.6916761 147.06570073 7.21471107 149 10 C149.44051414 10.5948287 149.88102827 11.1896574 150.33489132 11.80251122 C155.80254849 19.50420725 159.76524765 28.16663781 163 37 C163.41507813 38.11761719 163.83015625 39.23523438 164.2578125 40.38671875 C169.85634408 58.4938576 169.54804927 81.19015914 163 99 C162.61457031 100.06605469 162.22914063 101.13210937 161.83203125 102.23046875 C157.45917149 113.39612038 151.71748989 122.85574728 144 132 C143.236875 133.010625 142.47375 134.02125 141.6875 135.0625 C125.6999383 152.53727674 101.62950308 164.29291302 77.98828125 165.4140625 C51.77626785 166.14771939 29.50480144 160.94514438 9 144 C8.2744243 143.50536507 7.54884859 143.01073013 6.80128574 142.50110626 C3.14565694 139.76090328 0.45014852 137.59391713 -0.81953621 133.09812927 C-1.10699291 129.57185125 -1.11380704 126.14440655 -1.02172852 122.60742188 C-1.01918597 121.26635918 -1.02062245 119.92528397 -1.02571106 118.58422852 C-1.02828133 114.96386933 -0.9755793 111.3462233 -0.91254544 107.72649193 C-0.85607403 103.93633362 -0.85098068 100.14610492 -0.84031677 96.35559082 C-0.8124039 89.18706895 -0.73863415 82.01979042 -0.64817137 74.85181475 C-0.54738333 66.68751099 -0.49804313 58.52314613 -0.45291245 50.3583746 C-0.35897638 33.57152324 -0.20079541 16.78592057 0 0 Z " fill="#73D1AD" transform="translate(77,61)"/>
<path d="M0 0 C1.07460844 -0.00538554 2.14921687 -0.01077108 3.2563892 -0.01631981 C6.83975053 -0.03057176 10.42274102 -0.0235023 14.00611877 -0.01637268 C16.58232418 -0.02207765 19.15852705 -0.0290424 21.73472595 -0.03717041 C27.99538269 -0.05432508 34.25593892 -0.05520542 40.51661306 -0.04995751 C45.60737947 -0.04590853 50.69811629 -0.04736798 55.7888813 -0.05270576 C56.87760135 -0.0538284 56.87760135 -0.0538284 57.98831575 -0.05497371 C59.46301564 -0.05650526 60.93771552 -0.05804361 62.41241539 -0.05958868 C76.22693715 -0.07330153 90.0414022 -0.06788447 103.85592265 -0.05640347 C116.48101064 -0.0464712 129.10595207 -0.05941375 141.73101746 -0.08333766 C154.71068835 -0.10774727 167.69029103 -0.11733203 180.6699844 -0.11068493 C187.95062051 -0.10719699 195.23114392 -0.10939668 202.51176262 -0.12693596 C209.35810152 -0.14322523 216.20415633 -0.13844738 223.05048752 -0.11963081 C225.56027104 -0.1159455 228.0700753 -0.11905166 230.57983971 -0.1295166 C234.01155597 -0.14273126 237.4423466 -0.13117343 240.87402344 -0.11352539 C241.86207535 -0.1231304 242.85012726 -0.1327354 243.86812013 -0.14263147 C254.67202604 -0.02867828 262.50383925 3.75154294 270.00050354 11.38768005 C277.08675054 18.67076725 278.59682922 27.72643654 278.50843811 37.50743103 C278.51779805 39.12062532 278.51779805 39.12062532 278.52734709 40.7664094 C278.54321916 44.34677382 278.53069495 47.92645198 278.51808167 51.50682068 C278.52350532 54.08317459 278.53062934 56.6595254 278.5393219 59.23587036 C278.55705631 65.4930819 278.55328995 71.7501009 278.54167134 78.00731981 C278.53261719 83.09520755 278.53142155 88.18304156 278.5357666 93.27093506 C278.53637953 93.99661294 278.53699247 94.72229081 278.53762397 95.46995893 C278.53890295 96.94441729 278.5401998 98.41887564 278.54151434 99.89333397 C278.55290525 113.7012056 278.53982986 127.5089708 278.51831287 141.31682497 C278.50044322 153.15022968 278.50354774 164.9834774 278.52198792 176.81687927 C278.543421 190.57722286 278.55180676 204.3374733 278.53953886 218.09783125 C278.53826474 219.56669583 278.53700725 221.03556043 278.5357666 222.50442505 C278.53484095 223.58833105 278.53484095 223.58833105 278.5338966 224.69413415 C278.530451 229.77261375 278.53625494 234.85103399 278.54568481 239.92950439 C278.55811116 246.77176528 278.54919339 253.61372556 278.52610779 260.45595741 C278.52082768 262.96412477 278.52232246 265.47231712 278.53115845 267.98047447 C278.54212448 271.40995995 278.52833604 274.83850326 278.50843811 278.26792908 C278.52182244 279.74898376 278.52182244 279.74898376 278.53547716 281.25995874 C278.4142674 292.06527253 274.63096568 299.89108567 267.00050354 307.38768005 C266.27347229 308.13018005 266.27347229 308.13018005 265.53175354 308.88768005 C258.62283927 315.33600003 249.98711723 315.82989699 241.00100708 315.77536011 C239.92639864 315.78074565 238.85179021 315.78613118 237.74461788 315.79167992 C234.16125655 315.80593186 230.57826606 315.7988624 226.99488831 315.79173279 C224.4186829 315.79743776 221.84248003 315.80440251 219.26628113 315.81253052 C213.00562439 315.82968519 206.74506816 315.83056553 200.48439402 315.82531761 C195.39362761 315.82126864 190.30289079 315.82272809 185.21212578 315.82806587 C184.48631241 315.82881429 183.76049904 315.82956272 183.01269133 315.83033382 C181.53799144 315.83186537 180.06329156 315.83340371 178.58859169 315.83494879 C164.77406993 315.84866164 150.95960488 315.84324458 137.14508443 315.83176357 C124.51999644 315.82183131 111.89505501 315.83477386 99.26998962 315.85869776 C86.29031873 315.88310738 73.31071605 315.89269214 60.33102268 315.88604504 C53.05038657 315.8825571 45.76986316 315.88475678 38.48924446 315.90229607 C31.64290556 315.91858534 24.79685075 315.91380749 17.95051956 315.89499092 C15.44073604 315.8913056 12.93093178 315.89441177 10.42116737 315.90487671 C6.98945111 315.91809136 3.55866048 315.90653354 0.12698364 315.8888855 C-0.86106827 315.8984905 -1.84912018 315.90809551 -2.86711305 315.91799158 C-13.67101896 315.80403839 -21.50283217 312.02381717 -28.99949646 304.38768005 C-36.08574346 297.10459286 -37.59582214 288.04892356 -37.50743103 278.26792908 C-37.51367099 277.19246622 -37.51991096 276.11700336 -37.52634001 275.00895071 C-37.54221208 271.42858628 -37.52968787 267.84890812 -37.51707458 264.26853943 C-37.52249824 261.69218551 -37.52962226 259.1158347 -37.53831482 256.53948975 C-37.55604923 250.28227821 -37.55228287 244.02525921 -37.54066426 237.7680403 C-37.53161011 232.68015255 -37.53041447 227.59231855 -37.53475952 222.50442505 C-37.53537245 221.77874717 -37.53598539 221.05306929 -37.53661689 220.30540118 C-37.53789587 218.83094281 -37.53919272 217.35648447 -37.54050726 215.88202614 C-37.55189817 202.0741545 -37.53882278 188.26638931 -37.51730579 174.45853513 C-37.49943614 162.62513043 -37.50254066 150.79188271 -37.52098083 138.95848083 C-37.54241392 125.19813725 -37.55079968 111.43788681 -37.53853178 97.67752886 C-37.53725766 96.20866427 -37.53600017 94.73979967 -37.53475952 93.27093506 C-37.53383387 92.18702906 -37.53383387 92.18702906 -37.53288952 91.08122596 C-37.52944392 86.00274636 -37.53524786 80.92432612 -37.54467773 75.84585571 C-37.55710408 69.00359482 -37.54818631 62.16163455 -37.52510071 55.31940269 C-37.5198206 52.81123533 -37.52131538 50.30304299 -37.53015137 47.79488564 C-37.5411174 44.36540016 -37.52732896 40.93685684 -37.50743103 37.50743103 C-37.51635392 36.52006124 -37.5252768 35.53269145 -37.53447008 34.51540136 C-37.41326032 23.71008757 -33.6299586 15.88427444 -25.99949646 8.38768005 C-25.51480896 7.89268005 -25.03012146 7.39768005 -24.53074646 6.88768005 C-17.62183219 0.43936007 -8.98611015 -0.05453689 0 0 Z M-25.99949646 14.38768005 C-29.90086402 19.82415094 -33.11427366 24.96859056 -33.13930416 31.78382015 C-33.1449954 32.68807576 -33.15068664 33.59233137 -33.15655035 34.52398866 C-33.15773022 35.51871126 -33.1589101 36.51343386 -33.16012573 37.53829956 C-33.16521355 38.59411966 -33.17030137 39.64993976 -33.17554337 40.7377544 C-33.1913024 44.29350627 -33.19980212 47.84923777 -33.20823669 51.40501404 C-33.21777253 53.94753143 -33.22766357 56.49004752 -33.23788452 59.03256226 C-33.2665925 66.67695982 -33.2863587 74.32136021 -33.30327687 81.96579203 C-33.30807301 84.12602457 -33.31305621 86.2862566 -33.31808209 88.44648862 C-33.34906074 101.86821554 -33.37573987 115.28994682 -33.39250088 128.71169949 C-33.39645024 131.8207341 -33.40045325 134.92976864 -33.40452576 138.0388031 C-33.40553412 138.81151871 -33.40654248 139.58423432 -33.4075814 140.38036556 C-33.42457133 152.88489517 -33.46566092 165.38922629 -33.51654875 177.89365911 C-33.56839565 190.73979238 -33.59745266 203.58582378 -33.60469776 216.43206078 C-33.60935179 223.64140845 -33.62401555 230.85043139 -33.66444206 238.05967522 C-33.70245623 244.84692265 -33.70970314 251.6335201 -33.69643593 258.42089272 C-33.69648981 260.90727833 -33.70675698 263.39368873 -33.72818756 265.87998199 C-34.20167913 285.19918663 -34.20167913 285.19918663 -25.00417233 301.58618832 C-18.60356654 307.93155018 -11.01451554 310.81834116 -2.0887 310.93197787 C-1.11145445 310.92441922 -0.1342089 310.91686057 0.87265015 310.90907288 C1.93359679 310.91672397 2.99454344 310.92437506 4.08763999 310.93225801 C7.62496114 310.95281324 11.16162665 310.94495414 14.69898987 310.93699646 C17.24239703 310.9456953 19.78579895 310.95606313 22.32919312 310.9679718 C28.51034915 310.99194992 34.6912655 310.99706043 40.87245897 310.99237128 C45.89981169 310.98879783 50.9271118 310.99231937 55.95445824 311.00082016 C56.67136807 311.00201054 57.38827791 311.00320092 58.12691229 311.00442737 C59.58356972 311.006851 61.04022714 311.00927927 62.49688455 311.01171212 C76.14313548 311.03344133 89.78928745 311.02914873 103.43554392 311.01694243 C115.90091937 311.00660821 128.36598205 311.02910759 140.83129565 311.06713887 C153.65052875 311.10594811 166.46961408 311.12239838 179.28890628 311.11489236 C186.47800568 311.11107589 193.66683899 311.1159688 200.85589027 311.14432144 C207.61864962 311.17072428 214.38068368 311.16555875 221.14347649 311.13949966 C223.62017149 311.13477619 226.0969107 311.14020869 228.57355499 311.15674591 C247.71948208 311.51975659 247.71948208 311.51975659 264.10563374 302.57906532 C271.58461006 294.91649429 273.60416577 285.84244813 273.50843811 275.45101929 C273.51467807 274.39526862 273.52091804 273.33951796 273.52734709 272.25177485 C273.54321514 268.73816966 273.53069663 265.22526416 273.51808167 261.71165466 C273.52350547 259.18293861 273.53062958 256.65422573 273.5393219 254.1255188 C273.55563826 247.98492699 273.55329135 241.84459139 273.54167134 235.70399635 C273.53261697 230.71144679 273.53142164 225.71895199 273.5357666 220.72639656 C273.536686 219.65826187 273.536686 219.65826187 273.53762397 218.5685487 C273.53890294 217.1217096 273.5401998 215.67487053 273.54151434 214.22803146 C273.55290427 200.68009602 273.53983099 187.13226907 273.51831287 173.58435143 C273.50043945 161.97178365 273.50355104 150.35937582 273.52198792 138.74681091 C273.5434161 125.24393904 273.55180983 111.74116209 273.53953886 98.23827559 C273.53826473 96.797233 273.53700725 95.3561904 273.5357666 93.91514778 C273.5351495 93.20622362 273.5345324 92.49729946 273.5338966 91.76689274 C273.53044981 86.78262057 273.53625742 81.79840885 273.54568481 76.81414604 C273.55810434 70.10073939 273.54920464 63.3876807 273.52610779 56.6742878 C273.52082463 54.21246466 273.52232769 51.75061607 273.53115845 49.2888031 C273.54211229 45.92464646 273.52835086 42.56145271 273.50843811 39.19735718 C273.517361 38.22652929 273.52628388 37.2557014 273.53547716 36.25545448 C273.42856602 26.92371916 270.24716727 19.98172553 263.93019104 13.17674255 C260.91593014 10.38214439 257.66262272 8.24028152 254.00050354 6.38768005 C253.34758205 6.04240957 252.69466057 5.69713909 252.02195358 5.34140587 C247.5751964 3.93777944 243.30184377 4.10564766 238.66511536 4.12025452 C237.61363682 4.1157234 236.56215827 4.11119229 235.47881675 4.10652387 C231.94986839 4.09384758 228.42107373 4.09550235 224.8921051 4.09715271 C222.36412863 4.09116945 219.83615399 4.08436437 217.30818176 4.07679749 C211.15026553 4.06094687 204.99240574 4.05468814 198.83447102 4.05357273 C193.82751056 4.0526219 188.82056273 4.04850988 183.81360626 4.04217148 C169.61164924 4.02455945 155.40972243 4.0153324 141.2077544 4.01683243 C140.05957441 4.01695229 140.05957441 4.01695229 138.88819885 4.01707458 C138.12180854 4.01715635 137.35541823 4.01723811 136.56580397 4.01732235 C124.14995245 4.01813496 111.73422232 3.99900344 99.3184059 3.97079785 C86.56374553 3.94205166 73.80914433 3.92825855 61.05445075 3.9299854 C53.8961803 3.93064877 46.73803707 3.92518025 39.57979584 3.9036293 C32.84596186 3.88348581 26.11244085 3.88410893 19.37857819 3.89866257 C16.90868742 3.90075431 14.43877993 3.89602811 11.96891785 3.88394165 C8.59357175 3.86849561 5.21915257 3.87779427 1.84382629 3.89320374 C0.86958781 3.88291661 -0.10465068 3.87262948 -1.10841155 3.86203063 C-10.65997769 3.95819527 -19.18173538 7.61288806 -25.99949646 14.38768005 Z " fill="#000000" transform="translate(75.99949645996094,22.612319946289063)"/>
<path d="M0 0 C6.02592366 4.51670866 10.69889817 10.09948668 12.15234375 17.61328125 C13.26382684 27.76945802 11.27408498 34.95853011 4.96484375 42.92578125 C-0.54483581 48.72483473 -5.73364715 50.7099107 -13.73291016 51.1328125 C-22.48469506 51.31063681 -28.35162569 49.75598917 -34.8359375 43.78125 C-40.57353634 37.75855309 -42.91490904 32.13175637 -43.41015625 23.86328125 C-43.1944359 16.11695951 -40.18959618 9.48169117 -35.13671875 3.6328125 C-25.55933491 -5.14284464 -11.31448846 -6.6832669 0 0 Z " fill="#010302" transform="translate(208.84765625,86.38671875)"/>
<path d="M0 0 C18.21916836 -0.07000747 36.43830193 -0.12294755 54.65757561 -0.15543652 C63.11665207 -0.17092107 71.57564507 -0.19204079 80.03466797 -0.22631836 C87.40551562 -0.25617226 94.77630286 -0.27556344 102.14720929 -0.28226548 C106.05191915 -0.28618459 109.95645611 -0.29542764 113.86111069 -0.31719017 C117.53333264 -0.33749219 121.20530981 -0.34384668 124.87758255 -0.33932304 C126.87394576 -0.34054708 128.87028207 -0.35672199 130.86657715 -0.3732605 C132.63767349 -0.36707451 132.63767349 -0.36707451 134.44454956 -0.36076355 C135.47511412 -0.36352893 136.50567867 -0.36629431 137.56747246 -0.36914349 C138.37020655 -0.24732614 139.17294064 -0.12550879 140 0 C140.99 1.485 140.99 1.485 142 3 C141.34 3.33 140.68 3.66 140 4 C140 3.34 140 2.68 140 2 C94.46 2 48.92 2 2 2 C2.144375 23.5325 2.28875 45.065 2.4375 67.25 C2.48060303 74.05270508 2.52370605 80.85541016 2.56811523 87.86425781 C2.61136131 93.95419781 2.61136131 93.95419781 2.65589905 100.04412842 C2.67513913 102.75978966 2.69281719 105.47541938 2.70826721 108.19110107 C2.73175465 112.30095225 2.76293554 116.41071212 2.79467773 120.52050781 C2.80333312 122.33980238 2.80333312 122.33980238 2.81216335 124.19585037 C2.82682439 125.85403353 2.82682439 125.85403353 2.84178162 127.54571533 C2.84823417 128.50806721 2.85468672 129.47041908 2.8613348 130.46193314 C3.06800872 134.24480175 3.28034082 136.28034082 6 139 C3 139 3 139 1.33504772 137.84524059 C-0.50242827 135.30556712 -0.36939436 133.59762847 -0.36076355 130.47615051 C-0.36488754 129.32770157 -0.36901154 128.17925262 -0.3732605 126.9960022 C-0.36247467 125.73508759 -0.35168884 124.47417297 -0.34057617 123.17504883 C-0.33973001 121.83472208 -0.34020483 120.49439393 -0.34190369 119.15406799 C-0.34276551 115.51374437 -0.32510977 111.87371644 -0.30418181 108.23346162 C-0.28544604 104.42980076 -0.28366703 100.62613335 -0.28010559 96.82243347 C-0.27077599 89.61886015 -0.24614989 82.41542319 -0.21605712 75.21190995 C-0.18254153 67.01129014 -0.16603427 58.81066386 -0.15097082 50.60999262 C-0.11960108 33.73991617 -0.06682287 16.8699725 0 0 Z " fill="#8BCDB4" transform="translate(77,61)"/>
<path d="M0 0 C0.66 0 1.32 0 2 0 C0.90783114 2.77242864 -0.2025555 5.37394862 -1.625 8 C-3.98355514 13.32156411 -3.23095017 19.3117828 -3 25 C-3.66 25.33 -4.32 25.66 -5 26 C-5 19.73 -5 13.46 -5 7 C-4.34 6.67 -3.68 6.34 -3 6 C-1.95191959 4.02477154 -0.9479589 2.02518491 0 0 Z " fill="#7ABEA2" transform="translate(170,92)"/>
<path d="M0 0 C0.66 0.66 1.32 1.32 2 2 C0.35 4.31 -1.3 6.62 -3 9 C-3.66 8.34 -4.32 7.68 -5 7 C-5 6.01 -5 5.02 -5 4 C-4.360625 3.71125 -3.72125 3.4225 -3.0625 3.125 C-0.84793921 2.17176549 -0.84793921 2.17176549 0 0 Z " fill="#76BA9F" transform="translate(229,178)"/>
<path d="M0 0 C0.66 0 1.32 0 2 0 C1.71640113 1.4391134 1.42278601 2.87625518 1.125 4.3125 C0.88136719 5.51326172 0.88136719 5.51326172 0.6328125 6.73828125 C0 9 0 9 -2 12 C-1.85962479 10.18706911 -1.71255111 8.3746557 -1.5625 6.5625 C-1.48128906 5.55316406 -1.40007812 4.54382813 -1.31640625 3.50390625 C-1 1 -1 1 0 0 Z " fill="#73B69C" transform="translate(240,151)"/>
<path d="M0 0 C0.99 0 1.98 0 3 0 C3.12375 0.61875 3.2475 1.2375 3.375 1.875 C3.87197356 4.19120832 3.87197356 4.19120832 6 6 C3 6 3 6 1.3125 4.6875 C0 3 0 3 0 0 Z " fill="#79BCA4" transform="translate(77,194)"/>
<path d="M0 0 C0.99 0 1.98 0 3 0 C2.34 1.98 1.68 3.96 1 6 C0.34 6 -0.32 6 -1 6 C-1.625 4.125 -1.625 4.125 -2 2 C-1.34 1.34 -0.68 0.68 0 0 Z " fill="#75C5A6" transform="translate(234,166)"/>
</svg>
